/* XPM */
static const char * AMDTCompressApplicationIcon_32_xpm[] = {
"32 32 652 2",
"  	c None",
". 	c #6D6D6D",
"+ 	c #606360",
"@ 	c #879787",
"# 	c #91A591",
"$ 	c #778377",
"% 	c #5D5D5D",
"& 	c #787878",
"* 	c #7F7F7F",
"= 	c #818181",
"- 	c #828282",
"; 	c #808080",
"> 	c #7A7A7A",
", 	c #747474",
"' 	c #696969",
") 	c #676767",
"! 	c #656565",
"~ 	c #626262",
"{ 	c #616161",
"] 	c #646464",
"^ 	c #666666",
"/ 	c #686868",
"( 	c #636363",
"_ 	c #5B5B5B",
": 	c #515151",
"< 	c #3A3A3A",
"[ 	c #4A5F4B",
"} 	c #587D59",
"| 	c #4D6D4F",
"1 	c #343A34",
"2 	c #636963",
"3 	c #A2BBA3",
"4 	c #A3BFA3",
"5 	c #9AB79A",
"6 	c #92B293",
"7 	c #829C82",
"8 	c #5E625E",
"9 	c #727272",
"0 	c #7E7E7E",
"a 	c #7C7C7C",
"b 	c #767676",
"c 	c #707070",
"d 	c #6B6B6B",
"e 	c #5F5F5F",
"f 	c #3F453F",
"g 	c #577F59",
"h 	c #5F9061",
"i 	c #5F9161",
"j 	c #609262",
"k 	c #5C8B5E",
"l 	c #353E35",
"m 	c #8CA38D",
"n 	c #8FB090",
"o 	c #8AA98C",
"p 	c #97AC9C",
"q 	c #A3AFAB",
"r 	c #A4B0AC",
"s 	c #A0AAA8",
"t 	c #6D6F70",
"u 	c #7B7B7B",
"v 	c #717171",
"w 	c #6C6C6C",
"x 	c #4A4A4A",
"y 	c #5D5E60",
"z 	c #97A49F",
"A 	c #99A9A1",
"B 	c #98A8A0",
"C 	c #7B9880",
"D 	c #5C875F",
"E 	c #538454",
"F 	c #4D734F",
"G 	c #86AA87",
"H 	c #8EA793",
"I 	c #ABB2B4",
"J 	c #CBCBCD",
"K 	c #C2C2C2",
"L 	c #C2C2C3",
"M 	c #9C9D9D",
"N 	c #616162",
"O 	c #737373",
"P 	c #6F6F6F",
"Q 	c #535353",
"R 	c #959696",
"S 	c #CBCCCD",
"T 	c #A9B0B2",
"U 	c #6D8E73",
"V 	c #4B7D4D",
"W 	c #82A186",
"X 	c #B3B9BF",
"Y 	c #EDF0F4",
"Z 	c #F9FAFC",
"` 	c #F6F7F8",
" .	c #C8D9DC",
"..	c #AABEC2",
"+.	c #A7BABE",
"@.	c #AEBCBF",
"#.	c #BEBFC0",
"$.	c #828384",
"%.	c #575858",
"&.	c #575757",
"*.	c #4B4B4B",
"=.	c #7A7B7C",
"-.	c #C8D9DD",
";.	c #EDF1F4",
">.	c #B3BAC0",
",.	c #5C8260",
"'.	c #9AABA3",
").	c #DBE3EA",
"!.	c #EFF2F6",
"~.	c #EFF6F9",
"{.	c #B2E9F3",
"].	c #B8EDF6",
"^.	c #BDE7EE",
"/.	c #A1C3CA",
"(.	c #90B6BD",
"_.	c #8BB3BA",
":.	c #B2B9BC",
"<.	c #A4A9AF",
"[.	c #6E7373",
"}.	c #565656",
"|.	c #4E4E4E",
"1.	c #686E6D",
"2.	c #A2A8AE",
"3.	c #B2B8BB",
"4.	c #88B2BA",
"5.	c #8DB5BC",
"6.	c #A0C3CA",
"7.	c #BEE7EF",
"8.	c #BDEFF8",
"9.	c #B6EBF4",
"0.	c #EFF3F7",
"a.	c #DCE3EB",
"b.	c #8B9E94",
"c.	c #BBC4C9",
"d.	c #DFE6EE",
"e.	c #ECF0F5",
"f.	c #B4E7F1",
"g.	c #9EE6F4",
"h.	c #A8D2DA",
"i.	c #747F80",
"j.	c #757F81",
"k.	c #98B9C0",
"l.	c #88BCC7",
"m.	c #88AFB7",
"n.	c #ABB1B6",
"o.	c #A9AFB5",
"p.	c #536A54",
"q.	c #5C5C5C",
"r.	c #4D654E",
"s.	c #AAB0B6",
"t.	c #84ADB6",
"u.	c #7FBAC4",
"v.	c #94B8BF",
"w.	c #747E80",
"x.	c #ACD3DA",
"y.	c #A9EAF6",
"z.	c #B9E9F3",
"A.	c #EDF1F5",
"B.	c #E0E7EF",
"C.	c #B8C2C7",
"D.	c #CDD4DC",
"E.	c #DEE6EE",
"F.	c #E6ECF2",
"G.	c #6ED7EA",
"H.	c #9EE8F6",
"I.	c #3C4344",
"J.	c #2C2C2C",
"K.	c #A4E9F7",
"L.	c #6CD6EA",
"M.	c #D6DDE4",
"N.	c #D0D8DF",
"O.	c #5E8660",
"P.	c #5E5E5E",
"Q.	c #585858",
"R.	c #58825A",
"S.	c #D4DCE3",
"T.	c #5BD1E6",
"U.	c #99E6F5",
"V.	c #3B4244",
"W.	c #A9ECF8",
"X.	c #7DDCEE",
"Y.	c #E8EEF3",
"Z.	c #DFE7EE",
"`.	c #C0D0CE",
" +	c #DDE5ED",
".+	c #E3E9F0",
"++	c #4BCFE6",
"@+	c #98E8F7",
"#+	c #171A1B",
"$+	c #0D0D0D",
"%+	c #A0E9F7",
"&+	c #5ED4EA",
"*+	c #DEE5ED",
"=+	c #C1D7CE",
"-+	c #5F7A60",
";+	c #587459",
">+	c #BED6CC",
",+	c #4BCEE5",
"'+	c #95E5F5",
")+	c #161A1B",
"!+	c #171B1B",
"~+	c #A4EBF9",
"{+	c #5FD6EB",
"]+	c #E5EBF2",
"^+	c #B9C9C7",
"/+	c #7C8C82",
"(+	c #8FDBEB",
"_+	c #8BE4F4",
":+	c #92C4CF",
"<+	c #435457",
"[+	c #93C3CD",
"}+	c #98DCEC",
"|+	c #CEDDDC",
"1+	c #7AA77E",
"2+	c #565A56",
"3+	c #6A6A6A",
"4+	c #4D514D",
"5+	c #72A077",
"6+	c #CCDCDB",
"7+	c #8BD8E9",
"8+	c #88E1F2",
"9+	c #8EC1CC",
"0+	c #425357",
"a+	c #445457",
"b+	c #96C7CF",
"c+	c #99E8F7",
"d+	c #9DE1EF",
"e+	c #66756B",
"f+	c #606060",
"g+	c #586459",
"h+	c #738876",
"i+	c #6D9170",
"j+	c #5E8D60",
"k+	c #5E8D5F",
"l+	c #669268",
"m+	c #7D9E82",
"n+	c #5B885D",
"o+	c #58755A",
"p+	c #555955",
"q+	c #5B5A5A",
"r+	c #4A4E4B",
"s+	c #4C684D",
"t+	c #4D794E",
"u+	c #709274",
"v+	c #537F55",
"w+	c #477749",
"x+	c #457546",
"y+	c #437244",
"z+	c #406F42",
"A+	c #527555",
"B+	c #596D5C",
"C+	c #374237",
"D+	c #3B3B3B",
"E+	c #6A696A",
"F+	c #5D5C5C",
"G+	c #4F4F4F",
"H+	c #4D4D4D",
"I+	c #4C4C4C",
"J+	c #484848",
"K+	c #464646",
"L+	c #444444",
"M+	c #424242",
"N+	c #454545",
"O+	c #6E6E6E",
"P+	c #5E5D5E",
"Q+	c #595959",
"R+	c #555555",
"S+	c #434343",
"T+	c #5C5B5C",
"U+	c #5A5A5A",
"V+	c #545454",
"W+	c #525252",
"X+	c #505050",
"Y+	c #474747",
"Z+	c #494949",
"`+	c #757575",
" @	c #7D7D7D",
".@	c #777777",
"+@	c #414141",
"@@	c #5A5D5B",
"#@	c #616D62",
"$@	c #5C685D",
"%@	c #606C61",
"&@	c #515D52",
"*@	c #49564A",
"=@	c #4D5A4E",
"-@	c #484F48",
";@	c #555B55",
">@	c #5B675C",
",@	c #6A836C",
"'@	c #739275",
")@	c #7BA07F",
"!@	c #8CBD90",
"~@	c #8CBC90",
"{@	c #8BBB8F",
"]@	c #8ABA8E",
"^@	c #89B88C",
"/@	c #87B78B",
"(@	c #7AA07D",
"_@	c #69846B",
":@	c #5D6F5E",
"<@	c #5A635B",
"[@	c #555E56",
"}@	c #566757",
"|@	c #5E7960",
"1@	c #69916C",
"2@	c #71A374",
"3@	c #6FA172",
"4@	c #6C9F6F",
"5@	c #6A9D6D",
"6@	c #689B6A",
"7@	c #659967",
"8@	c #577F58",
"9@	c #527753",
"0@	c #476348",
"a@	c #415241",
"b@	c #3D473D",
"c@	c #85B989",
"d@	c #86B98A",
"e@	c #87BA8B",
"f@	c #88BA8C",
"g@	c #88B98C",
"h@	c #8ABB8E",
"i@	c #90C394",
"j@	c #91C595",
"k@	c #8EC192",
"l@	c #8DC090",
"m@	c #8BBE8F",
"n@	c #89BC8D",
"o@	c #80B084",
"p@	c #7CAB7F",
"q@	c #79A97D",
"r@	c #78A77B",
"s@	c #76A679",
"t@	c #76A879",
"u@	c #7BAF7E",
"v@	c #79AD7B",
"w@	c #76AC79",
"x@	c #76AC78",
"y@	c #75AD77",
"z@	c #6EA570",
"A@	c #689E6A",
"B@	c #629764",
"C@	c #609562",
"D@	c #5D935F",
"E@	c #5A905B",
"F@	c #578E58",
"G@	c #548C55",
"H@	c #87BD8A",
"I@	c #8EC792",
"J@	c #92CB95",
"K@	c #9AD79F",
"L@	c #9EDAA2",
"M@	c #A5E4A9",
"N@	c #A5E4AA",
"O@	c #A4E3A9",
"P@	c #A4E3A8",
"Q@	c #A2E2A7",
"R@	c #A1E0A5",
"S@	c #9FDFA4",
"T@	c #9DDDA2",
"U@	c #9BDB9F",
"V@	c #99D99D",
"W@	c #96D79A",
"X@	c #94D497",
"Y@	c #91D294",
"Z@	c #8ECF91",
"`@	c #8ACC8E",
" #	c #87C98A",
".#	c #83C486",
"+#	c #80C182",
"@#	c #7CBE7E",
"##	c #78BA7A",
"$#	c #70B072",
"%#	c #6BAA6C",
"&#	c #629F63",
"*#	c #5D9A5E",
"=#	c #569157",
"-#	c #96D69A",
";#	c #98D99C",
">#	c #9CDCA1",
",#	c #9EDEA2",
"'#	c #9FDEA3",
")#	c #A0DFA4",
"!#	c #9FDFA3",
"~#	c #9EDEA3",
"{#	c #9DDDA1",
"]#	c #9CDCA0",
"^#	c #9ADA9E",
"/#	c #94D598",
"(#	c #92D395",
"_#	c #8FD093",
":#	c #8CCE90",
"<#	c #89CB8D",
"[#	c #86C889",
"}#	c #7CBE7F",
"|#	c #78BB7B",
"1#	c #75B777",
"2#	c #71B473",
"3#	c #6DB06E",
"4#	c #69AC6A",
"5#	c #64A966",
"6#	c #60A561",
"7#	c #90D193",
"8#	c #92D396",
"9#	c #95D598",
"0#	c #97D79A",
"a#	c #98D89C",
"b#	c #9EDBA2",
"c#	c #A0DCA4",
"d#	c #A1DDA4",
"e#	c #A7DFAB",
"f#	c #AAE0AD",
"g#	c #ACE0AF",
"h#	c #ACDFAF",
"i#	c #ABDEAD",
"j#	c #A9DCAC",
"k#	c #A8DBAA",
"l#	c #A6D9A8",
"m#	c #A4D7A6",
"n#	c #A1D5A3",
"o#	c #9DD3A0",
"p#	c #99D09C",
"q#	c #94CC96",
"r#	c #8CC58E",
"s#	c #81BF83",
"t#	c #7DBC80",
"u#	c #78B87A",
"v#	c #6DB06F",
"w#	c #69AD6B",
"x#	c #65A967",
"y#	c #61A662",
"z#	c #5DA25E",
"A#	c #8ACB8D",
"B#	c #8FD092",
"C#	c #90D194",
"D#	c #729774",
"E#	c #81AA83",
"F#	c #8BB38E",
"G#	c #95BF98",
"H#	c #98C09B",
"I#	c #99BD9B",
"J#	c #98BA9A",
"K#	c #A9C9AB",
"L#	c #AFCDB0",
"M#	c #AECCB0",
"N#	c #AECCAF",
"O#	c #ADCBAE",
"P#	c #ABCAAD",
"Q#	c #AAC9AC",
"R#	c #A8C8A9",
"S#	c #8FB190",
"T#	c #8DB18E",
"U#	c #89B18B",
"V#	c #82AD84",
"W#	c #77A179",
"X#	c #6D986E",
"Y#	c #5C835D",
"Z#	c #6AAD6B",
"`#	c #66AA67",
" $	c #62A663",
".$	c #5EA35F",
"+$	c #5A9F5B",
"@$	c #84C586",
"#$	c #88CA8C",
"$$	c #8CCD8F",
"%$	c #8AC08D",
"&$	c #5E8A61",
"*$	c #4F7351",
"=$	c #4C6F4E",
"-$	c #3E5A3F",
";$	c #314832",
">$	c #283A29",
",$	c #223122",
"'$	c #1D2B1E",
")$	c #1B291B",
"!$	c #1A271B",
"~$	c #19271A",
"{$	c #1D2D1E",
"]$	c #223322",
"^$	c #283E29",
"/$	c #304C31",
"($	c #3B5E3C",
"_$	c #3E643F",
":$	c #49754A",
"<$	c #6CA56E",
"[$	c #569C57",
"}$	c #7DBF80",
"|$	c #80C283",
"1$	c #82C485",
"2$	c #84C587",
"3$	c #94CF97",
"4$	c #A2D6A4",
"5$	c #93C796",
"6$	c #7CA77E",
"7$	c #618663",
"8$	c #506C52",
"9$	c #3E533F",
"0$	c #213021",
"a$	c #1D2B1D",
"b$	c #1A281B",
"c$	c #192619",
"d$	c #192719",
"e$	c #1A281A",
"f$	c #1D2C1D",
"g$	c #374C38",
"h$	c #476248",
"i$	c #537854",
"j$	c #6B966C",
"k$	c #7DB27E",
"l$	c #8ABE8B",
"m$	c #73B175",
"n$	c #5BA05B",
"o$	c #579C57",
"p$	c #539953",
"q$	c #77BA7A",
"r$	c #7ABC7C",
"s$	c #7EC081",
"t$	c #80C183",
"u$	c #81C284",
"v$	c #85C488",
"w$	c #90CA93",
"x$	c #9BD09D",
"y$	c #AAD8AC",
"z$	c #AFDAB1",
"A$	c #B3DBB5",
"B$	c #B5DCB6",
"C$	c #B6DCB7",
"D$	c #B5DCB7",
"E$	c #B5DBB6",
"F$	c #B4DAB5",
"G$	c #B2D9B4",
"H$	c #B1D8B2",
"I$	c #AED6B0",
"J$	c #ABD4AC",
"K$	c #A5D0A6",
"L$	c #9DCB9F",
"M$	c #88BD89",
"N$	c #76B378",
"O$	c #68AA6A",
"P$	c #539954",
"Q$	c #4F9550",
"R$	c #74B676",
"S$	c #76B978",
"T$	c #7BBD7E",
"U$	c #7ABC7D",
"V$	c #73B375",
"W$	c #6AAA6C",
"X$	c #65A467",
"Y$	c #68A36A",
"Z$	c #689E69",
"`$	c #639864",
" %	c #619663",
".%	c #699C6B",
"+%	c #6EA06F",
"@%	c #70A272",
"#%	c #70A471",
"$%	c #6AA26B",
"%%	c #6BA46C",
"&%	c #6CA66D",
"*%	c #609F62",
"=%	c #5C9D5D",
"-%	c #5D9F5E",
";%	c #5EA15F",
">%	c #5EA25F",
",%	c #4B924C",
"'%	c #6BAE6D",
")%	c #6EB16F",
"!%	c #70B372",
"~%	c #72B574",
"{%	c #75B877",
"]%	c #6FB071",
"^%	c #67A869",
"/%	c #5F9F61",
"(%	c #58965A",
"_%	c #518D52",
":%	c #4C874D",
"<%	c #49844B",
"[%	c #49854A",
"}%	c #4B874C",
"|%	c #4D8A4E",
"1%	c #4F8C51",
"2%	c #518F53",
"3%	c #549255",
"4%	c #559557",
"5%	c #579858",
"6%	c #599A5A",
"7%	c #599C5B",
"8%	c #5A9E5B",
"9%	c #599E5A",
"0%	c #569B56",
"a%	c #529853",
"b%	c #4F954F",
"c%	c #4B924B",
"d%	c #488F48",
"e%	c #65A966",
"f%	c #67AB69",
"g%	c #6CAF6E",
"h%	c #6DB16F",
"i%	c #6FB271",
"j%	c #6EB170",
"k%	c #69AA6A",
"l%	c #63A365",
"m%	c #5D9C5F",
"n%	c #589659",
"o%	c #518F52",
"p%	c #508D51",
"q%	c #529053",
"r%	c #539254",
"s%	c #549455",
"t%	c #569657",
"u%	c #569858",
"v%	c #579A58",
"w%	c #589B59",
"x%	c #589D59",
"y%	c #579C58",
"z%	c #549A55",
"A%	c #519752",
"B%	c #4E944E",
"C%	c #4B914B",
"D%	c #499049",
"E%	c #64A865",
"F%	c #6BAE6C",
"G%	c #6AAD6C",
"H%	c #67A968",
"I%	c #62A464",
"J%	c #5EA060",
"K%	c #5B9C5D",
"L%	c #59995A",
"M%	c #579758",
"N%	c #569757",
"O%	c #579958",
"P%	c #579B58",
"Q%	c #559B56",
"R%	c #509650",
"S%	c #4D934D",
"T%	c #4A914A",
"U%	c #4C924C",
"V%	c #5BA05C",
"W%	c #5FA460",
"X%	c #62A764",
"Y%	c #66A967",
"Z%	c #63A764",
"`%	c #61A462",
" &	c #5FA260",
".&	c #5DA05E",
"+&	c #5C9E5D",
"@&	c #5A9D5C",
"#&	c #5A9D5B",
"$&	c #599D5A",
"%&	c #519751",
"&&	c #498F49",
". + @ # $ % & * = - ; > , . ' ) ! ~ { ] ^ ' / ( _ : < [ } | 1 < ",
"2 3 4 5 6 7 8 9 0 ; * a b c d / ! ( ! ^ / ' ! e : f g h i j k l ",
"m n o p q r s t ! & u > b v w / ^ ! ^ ^ ^ ] % x y z A B C D E F ",
"G H I J K K L K M N ) O O P d ' ) ! ] ] { Q : R K L K K S T U V ",
"W X Y Z `  ...+.@.#.$.%.] . d ' ) ! ( &.*.=.#.@.+...-.` Z ;.>.,.",
"'.).!.~.{.].^./.(._.:.<.[.}.d ' ) ! |.1.2.3.4.5.6.7.8.9.~.0.a.b.",
"c.d.e.f.g.h.i.j.k.l.m.n.o.p.{ ' ) q.r.o.s.t.u.v.w.w.x.y.z.A.B.C.",
"D.E.F.G.H.I.J.J.I.K.L.M.N.O.P./ ^ Q.R.N.S.T.U.V.J.J.I.W.X.Y.Z.D.",
"`. +.+++@+#+$+$+#+%+&+*+=+-+~ / ^ q.;+>+ +,+'+)+$+$+!+~+{+]+*+^+",
"/+ +E.(+_+:+<+<+[+'+}+|+1+2+3+' ! { 4+5+6+7+8+9+0+a+b+c+d+B. +e+",
"f+g+h+i+j+j+j+k+l+m+n+o+p+/ w ' ! f+q+r+s+t+u+v+w+x+y+z+A+B+C+D+",
". w ' ( ( ( ~ ~ { f+e ] w . . E+] e % F+}.G+H+I+x J+K+L+M+L+N+L+",
"3+w . . O+O+. . w d 3+3+d . O+3+] P+_ _ _ Q+&.R+Q : G+I+x J+K+S+",
"/ ' 3+d d d d d 3+' / / 3+. O+' ~ T+U+U+Q+Q.}.V+W+X+|.I+x Y+N+S+",
"^ ) / ' ' ' ' ' / ) ) ^ ' d w ) { _ Q+Q+Q.&.R+Q : G+H+*.Z+Y+N+M+",
"( ! ^ ^ ) ) ) / w ' ! ! ) ' ' ! e U+Q.Q.&.}.&.Q+Q |.I+x J+K+L+M+",
"{ ^ ' O+O `+u a a  @u .@9 w ) ~ % _ e ^ w P P w 3+) f+U+Q H+Y++@",
"c v P ) ( % @@#@$@%@Q+~ c u 0 u & .@9 ) U+G+&@*@=@-@x |.X+}.}.R+",
";@>@,@'@)@!@~@{@]@^@/@(@_@:@<@&.R+[@}@|@1@2@3@4@5@6@7@8@9@0@a@b@",
"c@d@e@f@f@g@h@i@j@k@l@m@n@o@p@q@r@s@t@u@v@w@x@y@z@A@B@C@D@E@F@G@",
"H@I@J@K@L@M@N@N@N@O@P@Q@R@S@T@U@V@W@X@Y@Z@`@ #.#+#@###$#%#&#*#=#",
"-#;#U@>#,#'#S@)#)#!#~#{#]#^#V@W@/#(#_#:#<#[#.#+#}#|#1#2#3#4#5#6#",
"7#8#9#0#a#b#c#d#e#f#g#g#h#h#i#j#k#l#m#n#o#p#q#r#s#t#u#v#w#x#y#z#",
"A#:#B#C#8#D#E#F#G#H#I#J#K#L#M#N#O#P#Q#R#S#T#U#V#W#X#Y#Z#`# $.$+$",
"@$[##$`@$$%$&$*$=$-$;$>$,$'$)$!$!$~$)${$]$^$/$($_$:$<$`# $.$+$[$",
"}$|$1$2$[#3$4$5$6$7$8$9$0$a$b$~$c$d$e$f$g$h$i$j$k$l$m$ $.$n$o$p$",
"q$r$}#s$t$u$v$w$x$y$z$A$B$C$D$E$F$G$H$I$J$K$L$M$N$O$y#.$+$o$P$Q$",
"2#R$S$##r$T$U$V$W$X$Y$Z$`$ %.%+%@%#%$%%%&%*%=%-%;%>%z#+$[$p$Q$,%",
"'%)%!%~%R$1#{%]%^%/%(%_%:%<%[%}%|%1%2%3%4%5%6%7%8%+$9%0%a%b%c%d%",
"e%f%Z#g%h%i%!%j%k%l%m%n%3%o%p%p%o%q%r%s%t%u%v%w%x%y%z%A%B%C%d%D%",
".$y#E%`#f%4#Z#F%G%H%I%J%K%L%M%t%t%t%N%u%O%v%P%y%Q%p$R%S%T%d%D%U%",
"x%V%z#W%y#X%E%e%x#Y%e%Z%`% &.&+&@&#&$&$&x%y%0%P$%&B%,%&&d%T%S%R%"};
