/* XPM */
static const char * ApplicationIcon_64_xpm[] = {
"64 64 18 1",
" 	c None",
".	c #040707",
"+	c #333636",
"@	c #919393",
"#	c #C0C1C1",
"$	c #FFFFFF",
"%	c #626464",
"&	c #525555",
"*	c #A1A2A2",
"=	c #232626",
"-	c #828383",
";	c #434545",
">	c #B1B2B2",
",	c #EFF0F0",
"'	c #141717",
")	c #D0D1D1",
"!	c #E0E0E0",
"~	c #727474",
"................................................................",
"................................................................",
"................................................................",
"................................................................",
"................................................................",
"................................................................",
"................................................................",
".............+@#########################################@.......",
"...........+#$$$$$$$$$$$$$$$$$$$$$$$$$$$$$$$$$$$$$$$$$$$#.......",
"..........%$$$$$$$$$$$$$$$$$$$$$$$$$$$$$$$$$$$$$$$$$$$$$#.......",
".........%$$$$$$$$$$$$$$$$$$$$$$$$$$$$$$$$$$$$$$$$$$$$$$#.......",
"........+$$$$$$$$$$$$$$$$$$$$$$$$$$$$$$$$$$$$$$$$$$$$$$$#.......",
"........#$$$$$#&................................................",
".......+$$$$$*..................................................",
".......@$$$$#...................................................",
".......#$$$$&...................................................",
".......#$$$$....=------%.......=------%...%-----=...............",
".......#$$$$.....#$$$$$$+......*$$$$$$&...#$$$$$;...............",
".......#$$$$.....+$$$$$$#.....;$$$$$$>....#$$$$$;...............",
".......#$$$$......-$$$$$$;....#$$$$$,'....#$$$$$;...............",
".......#$$$$.......)$$$$$!...%$$$$$$&.....#$$$$$;...............",
".......#$$$$.......+$$$$$$~.'!$$$$$#......#$$$$$;...............",
".......#$$$$........@$$$$$,'-$$$$$,=......#$$$$$;...............",
".......#$$$$........'!$$$$$*,$$$$$~.......#$$$$$;...............",
".......#$$$$.........;$$$$$$$$$$$#........#$$$$$;...............",
".......#$$$$..........@$$$$$$$$$$=........#$$$$$;...............",
".......#$$$$..........',$$$$$$$$-.........#$$$$$;...............",
".......#$$$$...........&$$$$$$$)..........#$$$$$;...............",
".......#$$$$............)$$$$$$&..........#$$$$$;...............",
".......#$$$$...........;$$$$$$$#..........#$$$$$;...............",
".......#$$$$...........!$$$$$$$$%.........#$$$$$;...............",
".......#$$$$..........-$$$$$$$$$,'........#$$$$$;...............",
".......#$$$$.........=$$$$$$$$$$$*........#$$$$$;...............",
".......#$$$$.........#$$$$$@,$$$$$;.......#$$$$$;...............",
".......#$$$$........%$$$$$!.%$$$$$!.......#$$$$$;...............",
".......#$$$$.......',$$$$$;..#$$$$$-......#$$$$$;...............",
".......#$$$$.......*$$$$$>...+$$$$$$=.....#$$$$$;...............",
".......#$$$$......;$$$$$,=....@$$$$$#.....#$$$$$)#######@.......",
".......#$$$$.....'!$$$$$-.....',$$$$$%....#$$$$$$$$$$$$$#.......",
".......#$$$$.....-$$$$$!.......%$$$$$,'...#$$$$$$$$$$$$$#.......",
".......#$$$$....+$$$$$$;........#$$$$$*...#$$$$$$$$$$$$$#.......",
".......#$$$$....#$$$$$>.........+$$$$$$;..#$$$$$$$$$$$$$#.......",
".......#$$$$....;;;;;;'..........+;;;;;=..+;;;;;;;;;;;;;+.......",
".......#$$$$&...................................................",
".......#$$$$#...................................................",
".......#$$$$$*..................................................",
".......#$$$$$$#&................................................",
".......#$$$$$$$$$$$$$$$$$$$$$$$$$$$$$$$$$$$$$$$$$$$$$$$$#.......",
".......#$$$$$$$$$$$$$$$$$$$$$$$$$$$$$$$$$$$$$$$$$$$$$$$$#.......",
".......@$$$$$$$$$$$$$$$$$$$$$$$$$$$$$$$$$$$$$$$$$$$$$$$$#.......",
".......+$$$$$$$$$$$$$$$$$$$$$$$$$$$$$$$$$$$$$$$$$$$$$$$$#.......",
"........#$$$$$$$$$$$$$$$$$$$$$$$$$$$$$$$$$$$$$$$$$$$$$$$#.......",
"........+$$$$$$$$$$$$$$$$$$$$$$$$$$$$$$$$$$$$$$$$$$$$$$$#.......",
".........%$$$$$$$$$$$$$$$$$$$$$$$$$$$$$$$$$$$$$$$$$$$$$$#.......",
"..........%$$$$$$$$$$$$$$$$$$$$$$$$$$$$$$$$$$$$$$$$$$$$$#.......",
"...........+#$$$$$$$$$$$$$$$$$$$$$$$$$$$$$$$$$$$$$$$$$$$#.......",
".............+-#########################################@.......",
"................................................................",
"................................................................",
"................................................................",
"................................................................",
"................................................................",
"................................................................",
"................................................................"};
