/* XPM */
static const char * ApplicationIcon_32_xpm[] = {
"32 32 18 1",
" 	c None",
".	c #060606",
"+	c #222626",
"@	c #727676",
"#	c #828282",
"$	c #424646",
"%	c #FEFEFE",
"&	c #EEF2F2",
"*	c #626666",
"=	c #C2C2C2",
"-	c #161616",
";	c #323636",
">	c #A2A2A2",
",	c #E2E2E2",
"'	c #525656",
")	c #D2D2D2",
"!	c #B2B2B2",
"~	c #929292",
"................................",
"................................",
"................................",
"......+@####################$...",
".....#%%%%%%%%%%%%%%%%%%%%%%#...",
"....#%%%%%%%%%%%%%%%%%%%%%%%#...",
"...+%%&*........................",
"...@%%*.........................",
"...#%%..@===-..$===$.===;.......",
"...#%%..-&%%>..,%%=..%%%$.......",
"...#%%...'%%%;@%%%+..%%%$.......",
"...#%%....=%%=&%%#...%%%$.......",
"...#%%....+&%%%%)....%%%$.......",
"...#%%.....@%%%%;....%%%$.......",
"...#%%.....+%%%,.....%%%$.......",
"...#%%.....!%%%%@....%%%$.......",
"...#%%....'%%&%%&+...%%%$.......",
"...#%%...-,%%*>%%!...%%%$.......",
"...#%%...~%%=.-&%%'..%%%>###$...",
"...#%%..$%%%;..@%%,-.%%%%%%%#...",
"...#%%..)%%~....)%%~.%%%%%%%#...",
"...#%%+.$$$-....+$$;.$$$$$$$+...",
"...#%%!.........................",
"...#%%%,####################$...",
"...@%%%%%%%%%%%%%%%%%%%%%%%%#...",
"...+%%%%%%%%%%%%%%%%%%%%%%%%#...",
"....#%%%%%%%%%%%%%%%%%%%%%%%#...",
".....#%%%%%%%%%%%%%%%%%%%%%%#...",
"......+*####################$...",
"................................",
"................................",
"................................"};
