/* XPM */
static const char* checkbox_checked_xpm[] = {
"16 16 9 1",
"  c None",
"! c #F8FAF8",
"# c #185080",
"$ c #E7E7D9",
"% c #ECEEE9",
"& c #20A020",
"' c #F0F4F0",
"( c #000000",
") c #FFFFFF",
"                ",
" #############  ",
" #$$$$%%%'''!#  ",
" #$$$%%%'''!!#  ",
" #$$%%%'''&!!#  ",
" #$%%%'''&&!)#  ",
" #%%&'''&&&))#  ",
" #%%&&'&&&)))#  ",
" #%'&&&&&))))#  ",
" #'''&&&)))))#  ",
" #''!!&))))))#  ",
" #'!!!)))))))#  ",
" #!!!))))))))#  ",
" #############  ",
"                ",
"                "};
