/* XPM */
static const char* checkbox_unchecked_xpm[] = {
"16 16 11 1",
"  c None",
"! c #F8FAF8",
"# c #185080",
"$ c #E8EAE5",
"% c #E0E0D8",
"& c #F0F0E8",
"' c #F0F0F0",
"( c #F0F4F0",
") c #E0E4E0",
"* c #000000",
"+ c #FFFFFF",
"                ",
" #############  ",
" #%%%)))$&''(#  ",
" #%%)))$&''(!#  ",
" #%)))$&''(!!#  ",
" #)))$&''(!!!#  ",
" #))$&''(!!!+#  ",
" #)$&''(!!!++#  ",
" #$&''(!!!+++#  ",
" #&''(!!!++++#  ",
" #''(!!!+++++#  ",
" #'(!!!++++++#  ",
" #(!!!+++++++#  ",
" #############  ",
"                ",
"                "};
