/* XPM */
static const char * double_slider_tickbox_xpm[] = {
"7 12 9 1",
" 	c None",
".	c #777777",
"+	c #888888",
"@	c #999999",
"#	c #BBBBBB",
"$	c #CCCCCC",
"%	c #AAAAAA",
"&	c #DDDDDD",
"*	c #EEEEEE",
".......",
".+++@#.",
".+##$%.",
".+$&#@.",
".@*$%+.",
".#&#@+.",
".%$%@+.",
".@#%@+.",
".+#%@+.",
" .+++. ",
"  ...  ",
"   .   "};

