/* XPM */
static const char* image_background_pattern[] = {
"16 16 2 1",
"  c #C0C0C0",
"! c #FFFFFF",
"        !!!!!!!!",
"        !!!!!!!!",
"        !!!!!!!!",
"        !!!!!!!!",
"        !!!!!!!!",
"        !!!!!!!!",
"        !!!!!!!!",
"        !!!!!!!!",
"!!!!!!!!        ",
"!!!!!!!!        ",
"!!!!!!!!        ",
"!!!!!!!!        ",
"!!!!!!!!        ",
"!!!!!!!!        ",
"!!!!!!!!        ",
"!!!!!!!!        "};

