/* XPM */
static const char * slider_indicator_xpm[] = {
"11 11 13 1",
" 	c None",
".	c #EEEEEE",
"+	c #E5E5E5",
"@	c #DDDDDD",
"#	c #D4D4D4",
"$	c #CCCCCC",
"%	c #BBBBBB",
"&	c #C3C3C3",
"*	c #5D5D5D",
"=	c #B2B2B2",
"-	c #AAAAAA",
";	c #A1A1A1",
">	c #999999",
" ......... ",
"+++++++++++",
"@@@@@@@@@@@",
"###########",
"$$%$$%$$%$$",
"&%*$%*$%*$&",
"%%$%%$%%$%%",
"===========",
"-----------",
";;;;;;;;;;;",
" >>>>>>>>> "};
