/* XPM */
static const char * slider_right_arrow_xpm[] = {
"11 11 19 1",
" 	c None",
".	c #EEEEEE",
"+	c #E5E5E5",
"@	c #DDDDDD",
"#	c #C3C3C3",
"$	c #444444",
"%	c #D4D4D4",
"&	c #4C4C4C",
"*	c #CCCCCC",
"=	c #555555",
"-	c #5D5D5D",
";	c #BBBBBB",
">	c #666666",
",	c #B2B2B2",
"'	c #6E6E6E",
")	c #AAAAAA",
"!	c #777777",
"~	c #A1A1A1",
"{	c #999999",
".........  ",
"++++++++++ ",
" @@#$@@@@@@",
" %%#&&%%%%%",
" **#===****",
" ###----*##",
" ;;;>>>*;;;",
" ,,,''*,,,,",
" )))!*)))))",
"~~~~*~~~~~ ",
"{{{{{{{{{  "};
