/* XPM */
static const char* AddCounter_ico_xpm[] = {
"16 16 8 1",
"  c None",
"! c #000000",
"# c #A6CAF0",
"$ c #204080",
"% c #4060C0",
"& c #6080C0",
"' c #80A0C0",
"( c #FFFBF0",
"                ",
"                ",
"                ",
"       &&&      ",
"       &#%      ",
"       &#%      ",
"    &&&&#%%%%   ",
"    &(###'&&%   ",
"    &%%%'%$$$   ",
"       %&$      ",
"       %&$      ",
"       %%$      ",
"                ",
"                ",
"                ",
"                "};
