/* XPM */
static const char * all_buffers_icon_xpm[] = {
"16 16 6 1",
" 	c None",
".	c #995500",
"+	c #999999",
"@	c #FFFFFF",
"#	c #DDDDDD",
"$	c #BBBBBB",
"       ..       ",
"       ..       ",
"  ++++++++++++  ",
"  +@@@@@@@@@#+  ",
"  +@########$+  ",
"  +@########$+  ",
"  +@########$+  ",
"  +@########$+  ",
"  +@########$+  ",
"  +#$$$$$$$$$+  ",
" .............. ",
"    .. .. ..    ",
"    .. .. ..    ",
"   ..  ..  ..   ",
"   ..      ..   ",
"                "};
