/* XPM */
static const char * amd_ico_xpm[] = {
"16 16 28 1",
" 	c None",
".	c #FF0000",
"+	c #FF2626",
"@	c #FF1A1A",
"#	c #FF3333",
"$	c #FA5454",
"%	c #FAFAFA",
"&	c #FD7E7E",
"*	c #FAF0E7",
"=	c #FFFFFF",
"-	c #FF4040",
";	c #FF5959",
">	c #FF4C4C",
",	c #FFF2F2",
"'	c #FC9696",
")	c #FD7171",
"!	c #FDBEBE",
"~	c #FD8A8A",
"{	c #FFCCCC",
"]	c #FF3326",
"^	c #FDFDFD",
"/	c #FC8989",
"(	c #FC6F6F",
"_	c #FA3A3A",
":	c #FD9797",
"<	c #FF0D0D",
"[	c #FCA2A2",
"}	c #FF9999",
"                ",
"                ",
"................",
"................",
"......+.@###@.+.",
".....$%&*===*-;+",
"....>,=')!=!)~{]",
"...>,^='.>=>.'=@",
"..>,,;='.>=>.'=@",
".>,,/(^'.>=>.'=@",
"@,,-_;^:.>=>.:=]",
"<[-..<}#.@}@.#}<",
"................",
"................",
"                ",
"                "};
