/* XPM */
static const char * analyze_execution_mode_xpm[] = {
"16 16 9 1",
" 	c None",
".	c #000000",
"+	c #BFBFBF",
"@	c #9F9F9F",
"#	c #7F7F7F",
"$	c #FFCFCF",
"%	c #BF9F9F",
"&	c #7F5F5F",
"*  c #FF6633",
"****************",
"****************",
"****...*********",
"*..*.+.*..******",
"*.@..+..+.******",
"**.@@+@+.*******",
"...@@.+@...*****",
".+++.@.@##..*.**",
"...@+.@#...$.$.*",
"**.+@@##..$%$%&.",
"*.+..#..#..$.%.*",
"*..*.#.*..$%%&&.",
"****...***.&.&.*",
"***********.*.**",
"****************",
"                "};
