/* XPM */
static const char * analyze_execution_mode_inactive_xpm[] = {
"16 16 5 1",
" 	c None",
".	c #000000",
"+	c #BFBFBF",
"@	c #9F9F9F",
"#	c #7F7F7F",
"                ",
"                ",
"    ...         ",
" .. .+. ..      ",
" .@..+..+.      ",
"  .@@+@+.       ",
"...@@.+@...     ",
".+++.@.@##.. .  ",
"...@+.@#...+.+. ",
"  .+@@##..+@+@#.",
" .+..#..#..+.@. ",
" .. .#. ..+@@##.",
"    ...   .#.#. ",
"           . .  ",
"                ",
"                "};
