/* XPM */
static const char* ATI_ico_xpm[] = {
"32 32 13 1",
"  c None",
"! c #000000",
"# c #F0CAA6",
"$ c #FF3333",
"% c #FF6633",
"& c #FF9999",
"' c #FFCCCC",
"( c #FF6666",
") c #EAEAEA",
"* c #F1F1F1",
"+ c #F8F8F8",
", c #FF0000",
"- c #FFFFFF",
"                                ",
"                                ",
"                                ",
"                                ",
"                                ",
",,,,,,,,,,,,,,,,,,,,,,,,,,,,,,,,",
",,,,,,,,,,,,,,,,,,,,,,,,,,,,,,,,",
",,,,,,,,,,,,,,,,,,,,,,,,,,,,,,,,",
",,,,,,,,,,,,,,,,,,,,,,,,,,,,,,,,",
",,,,,,,,,,,,$(,,,((((((((,,,($,,",
",,,,,,,,,,,$)-',#--------#,((&$,",
",,,,,,,,,,$)--+$+--------+$(,((,",
",,,,,,,,,$'---+$&++----++&$'('(,",
",,,,,,,,$'----+$,$$'--'$$,$+--%,",
",,,,,,,$'-----+$,,,&--&,,,$+--$,",
",,,,,,$'---+--+$,,,&--&,,,$+--$,",
",,,,,$'---'(--+$,,,&--&,,,$+--$,",
",,,,$'---',$--+$,,,&--&,,,$+--$,",
",,,$'---'$$$--+$,,,&--&,,,$+--$,",
",,$'---'$**(+-+$,,,&--&,,,$+--$,",
",,'---',,)'(+-+$,,,&--&,,,$+--%,",
",(---'$,,,,$---$,,,&--&,,,$---(,",
",$*-'$,,,,,$'-',,,,(--(,,,,'-'$,",
",,$(,,,,,,,,$(,,,,,,$$,,,,,,($,,",
",,,,,,,,,,,,,,,,,,,,,,,,,,,,,,,,",
",,,,,,,,,,,,,,,,,,,,,,,,,,,,,,,,",
",,,,,,,,,,,,,,,,,,,,,,,,,,,,,,,,",
",,,,,,,,,,,,,,,,,,,,,,,,,,,,,,,,",
"                                ",
"                                ",
"                                ",
"                                "};
