/* XPM */
static const char * blue3_icon_xpm[] = {
"16 16 47 1",
" 	c None",
".	c #C8D5FF",
"+	c #BACBFF",
"@	c #B9CBFF",
"#	c #ADC1FF",
"$	c #ACC0FF",
"%	c #A9BEFF",
"&	c #9EB7FF",
"*	c #9AB3FF",
"=	c #98B2FF",
"-	c #92ADFF",
";	c #8FACFF",
">	c #8CA9FF",
",	c #8BA8FF",
"'	c #91ADFF",
")	c #84A4FF",
"!	c #81A2FF",
"~	c #81A1FF",
"{	c #82A2FF",
"]	c #799BFF",
"^	c #799CFF",
"/	c #7A9CFF",
"(	c #789BFF",
"_	c #6A91FF",
":	c #6C92FF",
"<	c #7297FF",
"[	c #7498FF",
"}	c #5F89FF",
"|	c #6B91FF",
"1	c #7195FF",
"2	c #7296FF",
"3	c #7196FF",
"4	c #507DFF",
"5	c #5883FF",
"6	c #688FFF",
"7	c #6D92FF",
"8	c #4373FF",
"9	c #4877FF",
"0	c #668DFF",
"a	c #668EFF",
"b	c #4F7CFF",
"c	c #4978FF",
"d	c #4474FF",
"e	c #366AFF",
"f	c #3D6FFF",
"g	c #3D70FF",
"h	c #366BFF",
"                ",
"                ",
"      ....      ",
"    ++@@@@++    ",
"   #$%%%%%%$#   ",
"   &*======*&   ",
"  -;>,,,,,,>;'  ",
"  )!~~~~~~~~{)  ",
"  ]]]^^/^^/]](  ",
"  _:<[[[[[[<:_  ",
"   }|123221|}   ",
"   4567117654   ",
"    8940abcd    ",
"      efgh      ",
"                ",
"                "};
