/* XPM */
static const char * blue1_icon_xpm[] = {
"16 16 55 1",
" 	c None",
".	c #98B2FE",
"+	c #90ABF9",
"@	c #8FAAF9",
"#	c #8EAAF9",
"$	c #88A4F4",
"%	c #84A1F4",
"&	c #7E9CF4",
"*	c #7C9BF5",
"=	c #7D9BF5",
"-	c #89A4F4",
";	c #7E9CEF",
">	c #6E90F1",
",	c #688CF1",
"'	c #688CF2",
")	c #698CF2",
"!	c #7D9BEE",
"~	c #7A97EA",
"{	c #6F90EB",
"]	c #5B82EE",
"^	c #577EF0",
"/	c #567EEF",
"(	c #5B82EF",
"_	c #7997E9",
":	c #6D8CE6",
"<	c #5079EC",
"[	c #4672EF",
"}	c #4571EF",
"|	c #5179EC",
"1	c #6686E2",
"2	c #4671EA",
"3	c #3767EE",
"4	c #3666EF",
"5	c #3868EE",
"6	c #6586E1",
"7	c #6482DA",
"8	c #5679DF",
"9	c #3162ED",
"0	c #285CF0",
"a	c #5678D8",
"b	c #2F60E9",
"c	c #1E55F1",
"d	c #1C54F2",
"e	c #5675D0",
"f	c #476DD8",
"g	c #2559EA",
"h	c #1C53EF",
"i	c #134EF4",
"j	c #4F6FCC",
"k	c #476BD0",
"l	c #3D66D7",
"m	c #1D53EC",
"n	c #4768C7",
"o	c #4065CD",
"p	c #4769C7",
"                ",
"                ",
"      ....      ",
"    +@####@+    ",
"   $%&***=&%-   ",
"   ;>,'),),>!   ",
"  ~{]^/////({_  ",
"  :<[}}}}}}[|:  ",
"  123444444526  ",
"  789000000987  ",
"   abcddddcba   ",
"   efghiihgfe   ",
"    jklmmlkj    ",
"      noop      ",
"                ",
"                "};
