/* XPM */
static const char * blue2_icon_xpm[] = {
"16 16 62 1",
" 	c None",
".	c #97A4C9",
"+	c #8D9AC0",
"@	c #8C99C0",
"#	c #8B99BF",
"$	c #8290B6",
"%	c #7E8CB4",
"&	c #7887B2",
"*	c #7786B1",
"=	c #8390B6",
"-	c #7583AC",
";	c #6677A6",
">	c #6172A3",
",	c #6072A4",
"'	c #6173A4",
")	c #7582AB",
"!	c #6D7BA4",
"~	c #6473A0",
"{	c #52649A",
"]	c #4D6199",
"^	c #4D6098",
"/	c #52659B",
"(	c #6D7AA3",
"_	c #5F6E99",
":	c #465A92",
"<	c #3D5290",
"[	c #3C528F",
"}	c #3D5390",
"|	c #546591",
"1	c #3A4F8B",
"2	c #2E4588",
"3	c #2D4488",
"4	c #2D4588",
"5	c #2F4689",
"6	c #3B4F8B",
"7	c #546490",
"8	c #4F5E88",
"9	c #445587",
"0	c #273E83",
"a	c #203982",
"b	c #273F83",
"c	c #3F507F",
"d	c #233B7F",
"e	c #16317F",
"f	c #14307F",
"g	c #3A4A76",
"h	c #304377",
"i	c #19337B",
"j	c #132E7C",
"k	c #0D2A7D",
"l	c #30406D",
"m	c #2C3D6F",
"n	c #273A71",
"o	c #122C78",
"p	c #122D78",
"q	c #263971",
"r	c #2D3E6F",
"s	c #31416D",
"t	c #263663",
"u	c #223466",
"v	c #223567",
"w	c #263764",
"                ",
"                ",
"      ....      ",
"    +@####@+    ",
"   $%&****&%=   ",
"   -;>,'>'>;)   ",
"  !~{]^^^^^/~(  ",
"  _:<[[[[[[}:_  ",
"  |12334334567  ",
"  890aaaaaab98  ",
"   cdeffffedc   ",
"   ghijkkjihg   ",
"    lmnopqrs    ",
"      tuvw      ",
"                ",
"                "};
