/* XPM */
static const char * blue4_icon_xpm[] = {
"16 16 55 1",
" 	c None",
".	c #A9B7DF",
"+	c #9DADD8",
"@	c #9CACD8",
"#	c #92A3D1",
"$	c #8FA0D0",
"%	c #8A9CCF",
"&	c #899BCE",
"*	c #899CCE",
"=	c #8597CB",
"-	c #798EC7",
";	c #758AC6",
">	c #768BC6",
",	c #7A8EC8",
"'	c #8496CA",
")	c #7B8EC4",
"!	c #7489C3",
"~	c #677EC0",
"{	c #647CBF",
"]	c #6D81BE",
"^	c #5C75BB",
"/	c #5670B9",
"(	c #5D75BB",
"_	c #6279B8",
":	c #516CB5",
"<	c #4A66B5",
"[	c #4965B4",
"}	c #4966B5",
"|	c #4A67B5",
"1	c #6178B7",
"2	c #5970B2",
"3	c #536BB2",
"4	c #4360B2",
"5	c #3F5DB2",
"6	c #4B64AB",
"7	c #3E5CAE",
"8	c #3858AF",
"9	c #3757AF",
"0	c #425CA5",
"a	c #3F5AA7",
"b	c #3756AC",
"c	c #3454AD",
"d	c #3253AF",
"e	c #37529E",
"f	c #3652A0",
"g	c #3652A3",
"h	c #3151AA",
"i	c #3251AB",
"j	c #3552A2",
"k	c #3752A1",
"l	c #38529F",
"m	c #2C4898",
"n	c #2C499B",
"o	c #2D4A9B",
"p	c #2D4998",
"                ",
"                ",
"      ....      ",
"    +@@@@@@+    ",
"   #$%&&&*%$#   ",
"   =-;>>;>;,'   ",
"  )!~{{{{{{~!)  ",
"  ]^////////(]  ",
"  _:<[[}[[}|:1  ",
"  234555555432  ",
"   6789999876   ",
"   0abcddcba0   ",
"    efghijkl    ",
"      mnop      ",
"                ",
"                "};
