/* XPM */
static const char* buildProgram_command_xpm[] = {
"16 16 3 1",
"  c None",
"! c #000000",
"# c #000080",
"                ",
"  #   #   #   # ",
"    #   #   #   ",
"  #   #   #   # ",
"     #  #  #    ",
" !   #     #   !",
" ! ##### ##### !",
" !  ###   ###  !",
" !   #     #   !",
" !             !",
" ! ! ! ! ! ! ! !",
" !             !",
" ! ! ! ! ! ! ! !",
" !             !",
" !!!!!!!!!!!!!!!",
"                "};
