/* XPM */
static const char * cl_copy_command_xpm[] = {
"16 16 11 1",
" 	c None",
".	c #7F7F7F",
"+	c #9F9F9F",
"@	c #BFBFBF",
"#	c #DFDFDF",
"$	c #000000",
"%	c #FFFFFF",
"&	c #E599E5",
"*	c #B266B2",
"=	c #990099",
"-	c #FF0000",
"   .            ",
"+@@#+$$$$$$$    ",
"@%%%%.&&&&*$    ",
"+@@#+&****=$    ",
"   .$*=====$    ",
"    $&=%%=*$    ",
"    $=%==%=$    ",
"    $=%====$    ",
"    $=%=&=*---  ",
"    $=%==%----- ",
"    $*=%%--%-%--",
"    $&&==---%---",
"    $&***--%-%--",
"    $*====----- ",
"    $$$$$$$---  ",
"                "};
