/* XPM */
static const char * cl_kernel_execution_command_xpm[] = {
"16 16 11 1",
" 	c None",
".	c #7F7F7F",
"+	c #9F9F9F",
"@	c #BFBFBF",
"#	c #DFDFDF",
"$	c #000000",
"%	c #FFFFFF",
"&	c #FFFF66",
"*	c #FFCC33",
"=	c #FF9900",
"-	c #FF0000",
"   .            ",
"+@@#+$$$$$$$    ",
"@%%%%.&&&&*$    ",
"+@@#+&****=$    ",
"   .$*=====$    ",
"    $=%==%=$    ",
"    $=%=%==$    ",
"    $=%%===$    ",
"    $=%=%=*---  ",
"    $=%==%----- ",
"    $=%==--%-%--",
"    $&=&&---%---",
"    $&***--%-%--",
"    $*====----- ",
"    $$$$$$$---  ",
"                "};
