/* XPM */
static const char * cl_read_command_xpm[] = {
"16 16 11 1",
" 	c None",
".	c #7F7F7F",
"+	c #9F9F9F",
"@	c #BFBFBF",
"#	c #DFDFDF",
"$	c #000000",
"%	c #FFFFFF",
"&	c #7B9DFF",
"*	c #0043FF",
"=	c #00217F",
"-	c #FF0000",
"   .            ",
"+@@#+$$$$$$$    ",
"@%%%%.&&&&*$    ",
"+@@#+&****=$    ",
"   .$****==$    ",
"    $*%%%**$    ",
"    $*%**%*$    ",
"    $*%%%*=$    ",
"    $*%**%*---  ",
"    $*%**%----- ",
"    $*%**--%-%--",
"    $&*&&---%---",
"    $&***--%-%--",
"    $*====----- ",
"    $$$$$$$---  ",
"                "};
