/* XPM */
static const char * cl_write_command_xpm[] = {
"16 16 11 1",
" 	c None",
".	c #7F7F7F",
"+	c #9F9F9F",
"@	c #BFBFBF",
"#	c #DFDFDF",
"$	c #000000",
"%	c #FFFFFF",
"&	c #FF7372",
"*	c #FF0200",
"=	c #7F0100",
"-	c #FF0000",
"   .            ",
"+@@#+$$$$$$$    ",
"@%%%%.&&&&*$    ",
"+@@#+&****=$    ",
"   .$**==*=$    ",
"    $*%**%*$    ",
"    $*%**%*$    ",
"    $*%**%*$    ",
"    $*%**%*---  ",
"    $*%%%%----- ",
"    $*%**--%-%--",
"    $&*&&---%---",
"    $&***--%-%--",
"    $*====----- ",
"    $$$$$$$---  ",
"                "};
