/* XPM */
static const char * clearStatistics_command_disabled_xpm[] = {
"16 16 64 1",
" 	c None",
".	c #979DA5",
"+	c #959BA3",
"@	c #BFC5CD",
"#	c #C2C8D0",
"$	c #C3C9D1",
"%	c #C5CBD3",
"&	c #969CA4",
"*	c #B9BFC7",
"=	c #C0C6CE",
"-	c #C6CCD4",
";	c #C7CDD5",
">	c #9399A1",
",	c #B0B6BE",
"'	c #9AA0A8",
")	c #C8CED6",
"!	c #90969E",
"~	c #9298A0",
"{	c #949AA2",
"]	c #A9AFB7",
"^	c #9EA4AC",
"/	c #999FA7",
"(	c #989EA6",
"_	c #A2A8B0",
":	c #A5ABB3",
"<	c #A7ADB5",
"[	c #AAB0B8",
"}	c #8D939B",
"|	c #8F959D",
"1	c #91979F",
"2	c #A4AAB2",
"3	c #A1A7AF",
"4	c #A6ACB4",
"5	c #ADB3BB",
"6	c #8A9098",
"7	c #A3A9B1",
"8	c #888E96",
"9	c #7D838B",
"0	c #777D85",
"a	c #898F97",
"b	c #9CA2AA",
"c	c #7E848C",
"d	c #868C94",
"e	c #878D95",
"f	c #828890",
"g	c #7C828A",
"h	c #787E86",
"i	c #A0A6AE",
"j	c #9DA3AB",
"k	c #8C929A",
"l	c #838991",
"m	c #858B93",
"n	c #848A92",
"o	c #80868E",
"p	c #7A8088",
"q	c #9FA5AD",
"r	c #81878F",
"s	c #7F858D",
"t	c #DCE2EA",
"u	c #8E949C",
"v	c #9BA1A9",
"w	c #7B8189",
"x	c #797F87",
"y	c #ACB2BA",
"  .+   @#$%     ",
" +&&  *=%-;     ",
">+++  ,';))     ",
"!~{+  ]^/.(_:<[ ",
"}|1>  <23//'^45 ",
"6}}377<2_'&!890 ",
"8ab3334:7b+{!6c ",
"defcghi:7j>~!kl ",
"lm8nop7:2^q!kk~ ",
"rl68ds::2[|>+{!}",
"so6aes4:2+>t^t.|",
"gc668r4:2u&qt7v~",
"pw668l4::+&t:tv~",
"hxi_:4]y,[>/jb&|",
"0bq^i^i74]5!{~u ",
"                "};
