/* XPM */
static const char * commandQueuesViewer_command_xpm[] = {
"16 16 19 1",
" 	c None",
".	c #7F7F7F",
"+	c #9F9F9F",
"@	c #BFBFBF",
"#	c #DFDFDF",
"$	c #000000",
"%	c #FFFFFF",
"&	c #7B9DFF",
"*	c #0043FF",
"=	c #00217F",
"-	c #E599E5",
";	c #B266B2",
">	c #990099",
",	c #FFFF66",
"'	c #FFCC33",
")	c #FF9900",
"!	c #FF7372",
"~	c #FF0200",
"{	c #7F0100",
"   .            ",
"+@@#+$$$$$$$    ",
"@%%%%.&&&&*$    ",
"+@@#+&****=$    ",
"   .$*=====$    ",
"    $-----;$    ",
"    $-;;;;>$    ",
"    $;>>>>>$    ",
"    $,,,,,'$    ",
"    $,'''')$    ",
"    $')))))$ .  ",
"    $!!!!!+@@#+ ",
"    $!~~~~@%%%%.",
"    $~{{{{+@@#+ ",
"    $$$$$$$$ .  ",
"                "};
