/* XPM */
static const char* debug_execution_mode_inactive_xpm[] = {
"16 16 9 1",
" 	c None",
".	c #484848",
"+	c #000000",
"@	c #A0A0A0",
"#	c #C8C8C8",
"$	c #686868",
"%	c #FFFFFF",
"&	c #F4F4F4",
"*	c #404040",
"    .           ",
"    +    .      ",
"   @+@   .      ",
".+++.+. +@      ",
"  @+##+.+. .+   ",
"   .#.$##$+@ .. ",
".+ @+$%&##$.@   ",
"  ++.#&%&##$+   ",
"   @.##&*##$.+  ",
"   .+$###.#$+@..",
"   +@.$###+#.@  ",
"   . +.$$$#+.   ",
"  .   .+.+..*   ",
"      +@        ",
"      .         ",
"     .          "};
