/* XPM */
static const char * detailed_batch_data_command_disabled_xpm[] = {
"16 16 15 1",
" 	g None",
".	g #555555",
"+	g #888888",
"@	g #616161",
"#	g #9A9A9A",
"$	g #949494",
"%	g #686868",
"&	g #787878",
"*	g #777777",
"=	g #919191",
"-	g #A4A4A4",
";	g #707070",
">	g #575757",
",	g #868686",
"'	g #595959",
"                ",
"                ",
" .   +          ",
" .   +          ",
" .   +          ",
" .   +       @  ",
" .   + #     @  ",
" .   + # $   @  ",
" . % + # $   @  ",
" . % + # $   @  ",
" . %&+ # $ * @  ",
" . %&+ # $ * @  ",
" . %&+=#-$ *;@  ",
" .>%&+=#-$,*;@' ",
" ...............",
"                "};
