/* XPM */
static const char * device_icon_xpm[] = {
"16 16 11 1",
" 	c None",
".	c #00CF00",
"+	c #00BF00",
"@	c #7F7F7F",
"#	c #007F00",
"$	c #3F3F3F",
"%	c #1F1F1F",
"&	c #2F2F2F",
"*	c #000000",
"=	c #009F00",
"-	c #0F0F0F",
"                ",
" ..........++++ ",
" .@.@.@+@+@+@+# ",
" ..$$$$$$$$$%@# ",
" .@$&&&&&&&%*=# ",
" ..$&&&&&%%-*@# ",
" .@$&&&%%%%-*=# ",
" .+$&&%%%%--*@# ",
" .@$&&%%%%--*=# ",
" .+$&%%%%---*@# ",
" .@$&%%-----*=# ",
" ++$%-------*@# ",
" +@%*********=# ",
" ++@=@=@=@=@=@# ",
" +############# ",
"                "};
