/* XPM */
static const char* eventsView_debugOutput_xpm[] = {
"16 16 9 1",
" 	c None",
".	c #660000",
"+	c #EE0000",
"@	c #DD0000",
"#	c #CC0000",
"$	c #FFFFFF",
"%	c #BB0000",
"&	c #AA0000",
"*	c #990000",
"    .......     ",
"   .++@@@##.    ",
"  .++@$$$##%.   ",
" .++@$$$$$%%%.  ",
".++@@$$$$$%%&&. ",
".+@@@$$$$$%&&&. ",
".@@@#$$$$$&&&*. ",
".@@###$$$&&&**. ",
".@###%$$$&&***. ",
".###%%$$$&****. ",
".##%%%&&&*****. ",
" .%%%&$$$****.  ",
"  .%&&$$$***.   ",
"   .&&*****.    ",
"    .......     ",
"                "};
