/* XPM */
static const char* find_command_xpm[] = {
"16 16 5 1",
"  c None",
"! c #000000",
"# c #404040",
"$ c #FFFBF0",
"% c #FFFFFF",
"                ",
"   ###   ###    ",
"   #%#   #%#    ",
"   ###   ###    ",
"  ##### #####   ",
"  #%### #%###   ",
" #############  ",
"##%###$##%##### ",
"##%###$##%##### ",
"##%######%##### ",
"####### ####### ",
"#%###     #%### ",
"#%###     #%### ",
"#####     ##### ",
"                ",
"                "};
