/* XPM */
static const char * green2_icon_xpm[] = {
"16 16 61 1",
" 	c None",
".	c #97C999",
"+	c #8DC08F",
"@	c #8CC08E",
"#	c #8BBF8D",
"$	c #82B685",
"%	c #7EB481",
"&	c #78B27B",
"*	c #77B179",
"=	c #77B17A",
"-	c #83B685",
";	c #75AC78",
">	c #66A669",
",	c #61A364",
"'	c #60A464",
")	c #61A465",
"!	c #66A66A",
"~	c #75AB77",
"{	c #6DA46F",
"]	c #64A067",
"^	c #529A55",
"/	c #4D9951",
"(	c #4D9851",
"_	c #529B55",
":	c #6DA36F",
"<	c #5F9961",
"[	c #46924A",
"}	c #3D9041",
"|	c #3C8F40",
"1	c #549158",
"2	c #3A8B3E",
"3	c #2E8833",
"4	c #2D8831",
"5	c #2D8832",
"6	c #2F8934",
"7	c #3B8B3E",
"8	c #549057",
"9	c #4F8851",
"0	c #448747",
"a	c #27832B",
"b	c #208225",
"c	c #3F7F42",
"d	c #237F28",
"e	c #167F1C",
"f	c #147F1A",
"g	c #3A763D",
"h	c #307734",
"i	c #197B1F",
"j	c #137C19",
"k	c #0D7D13",
"l	c #306D33",
"m	c #2C6F2F",
"n	c #27712A",
"o	c #127817",
"p	c #26712A",
"q	c #2D6F2F",
"r	c #316D33",
"s	c #266329",
"t	c #226625",
"u	c #226726",
"v	c #26642A",
"                ",
"                ",
"      ....      ",
"    +@####@+    ",
"   $%&***=&%-   ",
"   ;>,'),),!~   ",
"  {]^/(((((_]:  ",
"  <[}||||||}[<  ",
"  123445445678  ",
"  90abbbbbba09  ",
"   cdeffffedc   ",
"   ghijkkjihg   ",
"    lmnoopqr    ",
"      stuv      ",
"                ",
"                "};
