/* XPM */
static const char * green1_icon_xpm[] = {
"16 16 60 1",
" 	c None",
".	c #98FE9D",
"+	c #90F996",
"@	c #8FF995",
"#	c #8EF994",
"$	c #89F48E",
"%	c #85F48A",
"&	c #7FF484",
"*	c #7DF583",
"=	c #8AF48F",
"-	c #7FEF86",
";	c #6FF176",
">	c #6AF170",
",	c #69F271",
"'	c #6AF271",
")	c #6FF177",
"!	c #7FEE85",
"~	c #7BEA81",
"{	c #71EB77",
"]	c #5CEE64",
"^	c #57F060",
"/	c #57EF60",
"(	c #5CEF64",
"_	c #7BE981",
":	c #70E675",
"<	c #53EC5A",
"[	c #48EF50",
"}	c #47EF50",
"|	c #48EF51",
"1	c #53EC5B",
"2	c #69E26F",
"3	c #48EA51",
"4	c #39EE43",
"5	c #37EF41",
"6	c #38EF41",
"7	c #3AEE43",
"8	c #68E16F",
"9	c #67DA6D",
"0	c #58DF5F",
"a	c #32ED3C",
"b	c #29F034",
"c	c #33ED3D",
"d	c #59D860",
"e	c #31E93B",
"f	c #1FF12B",
"g	c #1DF229",
"h	c #1DF228",
"i	c #5AD060",
"j	c #4AD852",
"k	c #27EA32",
"l	c #1DEF29",
"m	c #14F420",
"n	c #53CC5A",
"o	c #4BD053",
"p	c #41D749",
"q	c #1FEC2A",
"r	c #4CD053",
"s	c #4CC753",
"t	c #45CD4C",
"u	c #4CC754",
"                ",
"                ",
"      ....      ",
"    +@####@+    ",
"   $%&****&%=   ",
"   -;>,'>'>)!   ",
"  ~{]^/////({_  ",
"  :<[}}}}}}|1:  ",
"  234556556738  ",
"  90abbbbbbc09  ",
"   defghggfed   ",
"   ijklmmlkji   ",
"    nopqqprn    ",
"      sttu      ",
"                ",
"                "};
