/* XPM */
static const char * green4_icon_xpm[] = {
"16 16 57 1",
" 	c None",
".	c #ACDFAF",
"+	c #A0D8A4",
"@	c #9FD8A3",
"#	c #95D198",
"$	c #92D095",
"%	c #8DCF90",
"&	c #8CCE8F",
"*	c #8CCE90",
"=	c #87CB8B",
"-	c #7CC781",
";	c #78C67D",
">	c #79C67D",
",	c #7DC881",
"'	c #86CA8A",
")	c #7DC482",
"!	c #77C37B",
"~	c #6BC06F",
"{	c #68BF6D",
"]	c #6BC070",
"^	c #7DC481",
"/	c #6FBE73",
"(	c #60BB65",
"_	c #5AB95F",
":	c #5AB960",
"<	c #64B869",
"[	c #55B55B",
"}	c #4EB554",
"|	c #4DB453",
"1	c #4FB555",
"2	c #63B768",
"3	c #5BB260",
"4	c #55B25B",
"5	c #47B24D",
"6	c #44B24A",
"7	c #4DAB52",
"8	c #42AE48",
"9	c #3DAF44",
"0	c #3DAF43",
"a	c #3CAF43",
"b	c #43A549",
"c	c #41A747",
"d	c #3BAC42",
"e	c #39AD40",
"f	c #38AF3F",
"g	c #389E3E",
"h	c #38A03E",
"i	c #38A33E",
"j	c #36AA3D",
"k	c #36AB3D",
"l	c #38A23E",
"m	c #39A13E",
"n	c #399F3E",
"o	c #2D9833",
"p	c #2E9B34",
"q	c #2E9B35",
"r	c #2E9834",
"                ",
"                ",
"      ....      ",
"    +@@@@@@+    ",
"   #$%&&&*%$#   ",
"   =-;>>;>;,'   ",
"  )!~{{{{{{]!^  ",
"  /(_______:(/  ",
"  <[}||}||}1[2  ",
"  345666666543  ",
"   7890a00987   ",
"   bcdeffedcb   ",
"    ghijklmn    ",
"      opqr      ",
"                ",
"                "};
