/* XPM */
static const char * green3_icon_xpm[] = {
"16 16 47 1",
" 	c None",
".	c #CBFFCE",
"+	c #BDFFC1",
"@	c #AFFFB4",
"#	c #AEFFB3",
"$	c #ACFFB1",
"%	c #ABFFB0",
"&	c #ABFFB1",
"*	c #A2FFA7",
"=	c #9EFFA3",
"-	c #9CFFA1",
";	c #9CFFA2",
">	c #A1FFA6",
",	c #94FF9A",
"'	c #92FF98",
")	c #8FFF96",
"!	c #8FFF95",
"~	c #90FF96",
"{	c #93FF99",
"]	c #86FF8D",
"^	c #85FF8C",
"/	c #7BFF82",
"(	c #7DFF84",
"_	c #7EFF85",
":	c #7FFF86",
"<	c #7AFF81",
"[	c #6CFF74",
"}	c #6FFF77",
"|	c #78FF7F",
"1	c #61FF6A",
"2	c #70FF78",
"3	c #77FF7F",
"4	c #78FF80",
"5	c #52FF5A",
"6	c #5AFF63",
"7	c #6EFF75",
"8	c #73FF7B",
"9	c #44FF4E",
"0	c #4AFF54",
"a	c #53FF5C",
"b	c #52FF5B",
"c	c #4BFF54",
"d	c #45FF4F",
"e	c #37FF42",
"f	c #3EFF49",
"g	c #3FFF4A",
"h	c #38FF43",
"                ",
"                ",
"      ....      ",
"    ++++++++    ",
"   @#$%%%&$#@   ",
"   *=-;;-;-=>   ",
"  ,'))!!!!!~'{  ",
"  ]]^^^^^^^^]]  ",
"  /(_:::::::(<  ",
"  [}|<<<<<<|}[  ",
"   1234444321   ",
"   5678448765   ",
"    90a[[bcd    ",
"      efgh      ",
"                ",
"                "};
