/* XPM */
static const char * hide_controlPanel_xpm[] = {
"8 8 7 1",
" 	c None",
".	c #999999",
"+	c #808080",
"@	c #666666",
"#	c #4D4D4D",
"$	c #333333",
"%	c #000000",
"  ..    ",
"  .+@   ",
"   @#$  ",
"    #$% ",
"   @$%  ",
"  @$%   ",
"  $%    ",
"        "};
