/* XPM */
static const char * iPhone_small_ico_alt_xpm[] = {
"16 16 91 1",
" 	c None",
".	c #979797",
"+	c #9E9E9E",
"@	c #9D9D9D",
"#	c #9A9A9A",
"$	c #8F8F8F",
"%	c #7F7F7F",
"&	c #828282",
"*	c #959595",
"=	c #8D8D8D",
"-	c #818181",
";	c #808080",
">	c #969696",
",	c #909291",
"'	c #89988F",
")	c #8E8A89",
"!	c #968E8E",
"~	c #8D928F",
"{	c #878B8C",
"]	c #9B9B9B",
"^	c #8F9A92",
"/	c #BEEAC9",
"(	c #B1B7B1",
"_	c #BEBBBB",
":	c #C4C5B0",
"<	c #B7B9AC",
"[	c #BBC1C7",
"}	c #9D9D9E",
"|	c #909190",
"1	c #9A9C98",
"2	c #888D90",
"3	c #8A9297",
"4	c #9B9A95",
"5	c #8E8E8F",
"6	c #8D999E",
"7	c #949596",
"8	c #9B9B9A",
"9	c #C6BBA7",
"0	c #A1B8C1",
"a	c #A6C9D8",
"b	c #CFC8B0",
"c	c #ADB4B4",
"d	c #D8EAD8",
"e	c #999EA0",
"f	c #8F8F8E",
"g	c #94908E",
"h	c #868787",
"i	c #8A8B8C",
"j	c #969695",
"k	c #8A8B8B",
"l	c #868A8A",
"m	c #939393",
"n	c #9E9E98",
"o	c #F1EFCE",
"p	c #A9A9A6",
"q	c #BEBCBC",
"r	c #B3B3B3",
"s	c #A1A1A1",
"t	c #898987",
"u	c #878787",
"v	c #838383",
"w	c #8C8C8C",
"x	c #8F908F",
"y	c #838F88",
"z	c #84898C",
"A	c #848C91",
"B	c #858D91",
"C	c #878A8C",
"D	c #9A9591",
"E	c #979696",
"F	c #95A199",
"G	c #A3E1B5",
"H	c #A8C0C2",
"I	c #BAD2DC",
"J	c #AECFDC",
"K	c #ACBBBA",
"L	c #FBE0B0",
"M	c #A7A39C",
"N	c #979897",
"O	c #939996",
"P	c #929595",
"Q	c #939798",
"R	c #929899",
"S	c #9A9A93",
"T	c #8E8E8E",
"U	c #868686",
"V	c #868585",
"W	c #949494",
"X	c #999999",
"Y	c #9C9C9C",
"Z	c #A0A0A0",
"    .+@@+++#    ",
"    $%%&&%%*    ",
"    =%-;;%%>    ",
"    ,')!~{]@    ",
"    ^/(_:<[}    ",
"    |1234567    ",
"    890abcde    ",
"    fghijklm    ",
"    nopqrs%m    ",
"    =t;&uv%m    ",
"    w%%%%%%m    ",
"    xyzABCDE    ",
"    FGHIJKLM    ",
"    NOPQRPS@    ",
"    T%%UV%%W    ",
"    XYYsZYY@    "};