/* XPM */
static const char * iPhone_small_ico_xpm[] = {
"16 16 90 1",
" 	c None",
".	c #303030",
"+	c #3E3E3E",
"@	c #373737",
"#	c #212121",
"$	c #000000",
"%	c #070707",
"&	c #2E2E2E",
"*	c #1C1C1C",
"=	c #040404",
"-	c #020202",
";	c #222724",
">	c #143220",
",	c #1F1715",
"'	c #2F1E1E",
")	c #1D2721",
"!	c #11191A",
"~	c #383838",
"{	c #3C3C3C",
"]	c #203727",
"^	c #7ED695",
"/	c #647065",
"(	c #7E7878",
"_	c #8B8D62",
":	c #70745B",
"<	c #788591",
"[	c #3D3D3E",
"}	c #232423",
"|	c #373B33",
"1	c #121C22",
"2	c #162731",
"3	c #39362D",
"4	c #1F1E20",
"5	c #1C343E",
"6	c #2A2C2E",
"7	c #383836",
"8	c #8E7850",
"9	c #457284",
"0	c #4F95B3",
"a	c #A19262",
"b	c #5D6A6A",
"c	c #B3D6B3",
"d	c #353F42",
"e	c #21201F",
"f	c #2B231F",
"g	c #0F1011",
"h	c #16191B",
"i	c #2F2F2D",
"j	c #171818",
"k	c #0F1616",
"l	c #282828",
"m	c #3E3E32",
"n	c #E4E09E",
"o	c #55544E",
"p	c #7E7A7A",
"q	c #696868",
"r	c #454444",
"s	c #151511",
"t	c #030302",
"u	c #101010",
"v	c #202321",
"w	c #082112",
"x	c #0A151A",
"y	c #0B1A24",
"z	c #0C1C25",
"A	c #10161A",
"B	c #372C24",
"C	c #312F2E",
"D	c #2D4434",
"E	c #49C46D",
"F	c #538386",
"G	c #76A7BB",
"H	c #5FA0BB",
"I	c #5B7876",
"J	c #F9C263",
"K	c #51493B",
"L	c #303231",
"M	c #29352E",
"N	c #262C2D",
"O	c #283133",
"P	c #263234",
"Q	c #373629",
"R	c #1F1F1F",
"S	c #0E0D0D",
"T	c #2B2B2B",
"U	c #353535",
"V	c #3B3B3B",
"W	c #454545",
"X	c #434242",
"Y	c #3D3D3D",
"    .++++++@    ",
"    #$$%%$$&    ",
"    *$=--$$&    ",
"    ;>,')!~{    ",
"    ]^/(_:<[    ",
"    }|123456    ",
"    7890abcd    ",
"    efghijkl    ",
"    mnopqr$l    ",
"    *st%u%$l    ",
"    *$$$$$$l    ",
"    vwxyzABC    ",
"    DEFGHIJK    ",
"    LMNOPNQ{    ",
"    R$$uS$$T    ",
"    UVVWXVVY    "};
