/* XPM */
static const char * iPhone_os_small_ico_xpm[] = {
"16 16 108 2",
"  	c None",
". 	c #303030",
"+ 	c #3E3E3E",
"@ 	c #373737",
"# 	c #212121",
"$ 	c #000000",
"% 	c #070707",
"& 	c #2E2E2E",
"* 	c #1C1C1C",
"= 	c #040404",
"- 	c #020202",
"; 	c #222724",
"> 	c #143220",
", 	c #1F1715",
"' 	c #2F1E1E",
") 	c #1D2721",
"! 	c #11191A",
"~ 	c #383838",
"{ 	c #3C3C3C",
"] 	c #203727",
"^ 	c #7ED695",
"/ 	c #647065",
"( 	c #7E7878",
"_ 	c #8B8D62",
": 	c #70745B",
"< 	c #788591",
"[ 	c #3D3D3E",
"} 	c #232423",
"| 	c #373B33",
"1 	c #121C22",
"2 	c #162731",
"3 	c #39362D",
"4 	c #1F1E20",
"5 	c #1C343E",
"6 	c #2A2C2E",
"7 	c #383836",
"8 	c #8E7850",
"9 	c #457284",
"0 	c #4F95B3",
"a 	c #A19262",
"b 	c #5D6A6A",
"c 	c #B3D6B3",
"d 	c #353F42",
"e 	c #21201F",
"f 	c #2B231F",
"g 	c #0F1011",
"h 	c #16191B",
"i 	c #2F2F2D",
"j 	c #171818",
"k 	c #0F1616",
"l 	c #282828",
"m 	c #3E3E32",
"n 	c #E4E09E",
"o 	c #55544E",
"p 	c #7E7A7A",
"q 	c #696868",
"r 	c #454444",
"s 	c #C1FFC4",
"t 	c #151511",
"u 	c #030302",
"v 	c #101010",
"w 	c #99FF9E",
"x 	c #96FF9A",
"y 	c #95FF9A",
"z 	c #6DFF75",
"A 	c #6AFF73",
"B 	c #69FF71",
"C 	c #68FF70",
"D 	c #202321",
"E 	c #082112",
"F 	c #0A151A",
"G 	c #0B1A24",
"H 	c #0C1C25",
"I 	c #45FF4F",
"J 	c #44FF4E",
"K 	c #42FF4C",
"L 	c #43FF4D",
"M 	c #45FF4E",
"N 	c #2D4434",
"O 	c #49C46D",
"P 	c #538386",
"Q 	c #76A7BB",
"R 	c #5FA0BB",
"S 	c #37FF42",
"T 	c #2CFF38",
"U 	c #25FF31",
"V 	c #24FF30",
"W 	c #2CFF37",
"X 	c #36FF41",
"Y 	c #303231",
"Z 	c #29352E",
"` 	c #262C2D",
" .	c #283133",
"..	c #263234",
"+.	c #26FF32",
"@.	c #16FF22",
"#.	c #10FF1D",
"$.	c #15FF22",
"%.	c #26FF31",
"&.	c #1F1F1F",
"*.	c #0E0D0D",
"=.	c #0FFF1C",
"-.	c #06FF14",
";.	c #353535",
">.	c #3B3B3B",
",.	c #454545",
"'.	c #434242",
").	c #3D3D3D",
"        . + + + + + + @         ",
"        # $ $ % % $ $ &         ",
"        * $ = - - $ $ &         ",
"        ; > , ' ) ! ~ {         ",
"        ] ^ / ( _ : < [         ",
"        } | 1 2 3 4 5 6         ",
"        7 8 9 0 a b c d         ",
"        e f g h i j k l         ",
"        m n o p q r $ s s s     ",
"        * t u % v % w x y x w   ",
"        * $ $ $ $ z A B C B A z ",
"        D E F G H I J K K K L M ",
"        N O P Q R S T U V U W X ",
"        Y Z `  ...` +.@.#.$.%.  ",
"        &.$ $ v *.$ $ =.-.=.    ",
"        ;.>.>.,.'.>.>.).        "};
