/* XPM */
static const char* linux_ico_xpm[] = {
"16 16 7 1",
"  c None",
"! c #000000",
"# c #808000",
"$ c #C0C0C0",
"% c #808080",
"& c #FFFF00",
"' c #FFFFFF",
"                ",
"      !!!       ",
"     !!!!!      ",
"     !$!$!      ",
"     !!&!!      ",
"     !&&&!$     ",
"    $!$$$!!     ",
"    !!'$''!$    ",
"   $!$'''$!!    ",
"   $!''$''!!$   ",
"   !!''$''!!%   ",
"  %&#!'$''!!$   ",
"  %&&%'''$&!&%  ",
" %&&&#'''!&&&&% ",
"  ##&&!!!!&&%%  ",
"   $%#%$$%#%    "};
