/* XPM */
static const char * mac_ico_xpm[] = {
"16 16 47 1",
" 	c None",
".	c #FFFFFF",
"+	c #E8E8E8",
"@	c #A1A1A1",
"#	c #A4A4A4",
"$	c #F7F7F7",
"%	c #8F8F8F",
"&	c #767676",
"*	c #B0B0B0",
"=	c #E6E6E6",
"-	c #A7A7A7",
";	c #FAFAFA",
">	c #F4F4F4",
",	c #BDBDBD",
"'	c #AAAAAA",
")	c #AEAEAE",
"!	c #C3C3C3",
"~	c #9D9D9D",
"{	c #AFAFAF",
"]	c #E0E0E0",
"^	c #EFEFEF",
"/	c #828282",
"(	c #898989",
"_	c #E7E7E7",
":	c #A5A5A5",
"<	c #909090",
"[	c #EAEAEA",
"}	c #989898",
"|	c #9B9B9B",
"1	c #8D8D8D",
"2	c #E5E5E5",
"3	c #B8B8B8",
"4	c #9F9F9F",
"5	c #E9E9E9",
"6	c #D4D4D4",
"7	c #787878",
"8	c #BABABA",
"9	c #F1F1F1",
"0	c #9C9C9C",
"a	c #E1E1E1",
"b	c #DFDFDF",
"c	c #C0C0C0",
"d	c #FBFBFB",
"e	c #D3D3D3",
"f	c #949494",
"g	c #C8C8C8",
"h	c #888888",
"        ...     ",
"       .+@#.    ",
"      .$%&*.    ",
"   ....=&-;..   ",
"  .>,')!#~{)].  ",
" .^#&&&/(&&&%_. ",
" .!&&&&&&&&&*$. ",
" .:&&&&&&&&<[.  ",
" .}&&&&&&&&|$.  ",
" .@&&&&&&&&12.  ",
" .3&&&&&&&&&45. ",
" .67&&&&&&&&&8. ",
" .90&&&&&&&&/a. ",
"  .b/&&&&&&&cd. ",
"   .e<fcg4h8$.  ",
"    .........   "};
