/* XPM */
static const char * monitored_objects_tree_command_xpm[] = {
"16 16 150 2",
"  	c None",
". 	c #DE8073",
"+ 	c #D55D4B",
"@ 	c #D75E49",
"# 	c #D86149",
"$ 	c #D9654A",
"% 	c #DB684B",
"& 	c #DD6B4B",
"* 	c #DE6E4C",
"= 	c #E0704C",
"- 	c #E2754D",
"; 	c #E2764E",
"> 	c #E4794F",
", 	c #E87F52",
"' 	c #F0A683",
") 	c #DA6F67",
"! 	c #CE4433",
"~ 	c #D04733",
"{ 	c #D14A34",
"] 	c #D34E34",
"^ 	c #D55235",
"/ 	c #D65536",
"( 	c #D95837",
"_ 	c #DC5E38",
": 	c #DB5F38",
"< 	c #DD6238",
"[ 	c #DF6639",
"} 	c #E1693A",
"| 	c #E36C3A",
"1 	c #E6713C",
"2 	c #F1A57F",
"3 	c #CB3C32",
"4 	c #CE4333",
"5 	c #D65D48",
"6 	c #F5D7CC",
"7 	c #F5D8CC",
"8 	c #F6D8CD",
"9 	c #F6D9CD",
"0 	c #F6D8CB",
"a 	c #F5CCBC",
"b 	c #EDAD95",
"c 	c #E37750",
"d 	c #EB804D",
"e 	c #CB392F",
"f 	c #D8634E",
"g 	c #FFFFFF",
"h 	c #EDA384",
"i 	c #E46D3B",
"j 	c #EA7F4A",
"k 	c #DF7C64",
"l 	c #DD6B4D",
"m 	c #E17854",
"n 	c #EB9A7A",
"o 	c #FBE7DB",
"p 	c #EB966F",
"q 	c #E7713C",
"r 	c #CA342D",
"s 	c #CD4332",
"t 	c #DE7866",
"u 	c #DC6038",
"v 	c #E1673A",
"w 	c #E77B4A",
"x 	c #FEFDFC",
"y 	c #FADECF",
"z 	c #E66E3A",
"A 	c #E97440",
"B 	c #C50A22",
"C 	c #C82025",
"D 	c #CD3429",
"E 	c #D75C49",
"F 	c #DE7F71",
"G 	c #D14B34",
"H 	c #D95A37",
"I 	c #E0673A",
"J 	c #E46E3B",
"K 	c #F6C7AE",
"L 	c #E56233",
"M 	c #E76937",
"N 	c #C50E22",
"O 	c #C71622",
"P 	c #C91D23",
"Q 	c #E69193",
"R 	c #C71222",
"S 	c #CB2524",
"T 	c #D03225",
"U 	c #D43D26",
"V 	c #D84827",
"W 	c #DD5028",
"X 	c #E15628",
"Y 	c #F3B499",
"Z 	c #E56C43",
"` 	c #E76838",
" .	c #E38D8F",
"..	c #F7DDE1",
"+.	c #CB2223",
"@.	c #CF2D24",
"#.	c #D33825",
"$.	c #D64225",
"%.	c #DB4A26",
"&.	c #DF5427",
"*.	c #F7CCBD",
"=.	c #E55F32",
"-.	c #DE727B",
";.	c #C61322",
">.	c #CB2423",
",.	c #D23724",
"'.	c #D84225",
").	c #E87954",
"!.	c #F8D6CB",
"~.	c #E15627",
"{.	c #D85A69",
"].	c #E16443",
"^.	c #FEFAF9",
"/.	c #E67956",
"(.	c #E05527",
"_.	c #CF2F24",
":.	c #DA5439",
"<.	c #FAE7E2",
"[.	c #E67A5C",
"}.	c #DE5126",
"|.	c #FDF9FA",
"1.	c #DF7C83",
"2.	c #E28484",
"3.	c #E48A85",
"4.	c #E68C80",
"5.	c #E99384",
"6.	c #E89788",
"7.	c #E2725B",
"8.	c #DA4927",
"9.	c #DC4D26",
"0.	c #E25727",
"a.	c #DE695B",
"b.	c #D43C25",
"c.	c #D53E25",
"d.	c #D84325",
"e.	c #DB4926",
"f.	c #DF5226",
"g.	c #E86A3A",
"h.	c #E0756B",
"i.	c #D54025",
"j.	c #DA4926",
"k.	c #DC4C26",
"l.	c #EE906D",
"m.	c #E3847D",
"n.	c #D03424",
"o.	c #D53D25",
"p.	c #D94526",
"q.	c #DD4D26",
"r.	c #DF5429",
"s.	c #EB8663",
"  . + @ # $ % & * = - ; > , '   ",
") ! ~ { ] ^ / ( _ : < [ } | 1 2 ",
"3 4 ~ 5 6 7 8 9 0 a b c } | 1 d ",
"e 4 ~ f g g g g g g g g h i 1 j ",
"e ! ~ f g g k l m n o g g p q j ",
"r s ~ f g t ^ ( u v w x g y z A ",
"B C D E F G ^ H u I J K g g L M ",
"N O P Q R S T U V W X Y g g Z ` ",
"B R  ...O +.@.#.$.%.&.*.g g =.` ",
"B -.g ..;.>.@.,.'.%.).g g !.~.` ",
"{.g g ..R +.@.,.$.].^.g g /.(.M ",
"g g g ..O +._.,.:.<.g <.[.}.~.` ",
"g g g |.1.2.3.4.5.6.7.8.9.}.0.` ",
"g g g g g g g a.b.c.d.e.9.f.(.g.",
"g g g g g g h.,.b.i.d.j.k.}.~.l.",
"  g g g g m.n.,.o.c.p.j.q.r.s.  "};
