/* XPM */
static const char * MyComputer_ico_xpm[] = {
"16 16 138 2",
"  	c None",
". 	c #EAE9E9",
"+ 	c #D3D2D1",
"@ 	c #D2D2D0",
"# 	c #D2D1D0",
"$ 	c #D0D0CE",
"% 	c #CFCFCD",
"& 	c #CECECC",
"* 	c #CDCDCB",
"= 	c #CCCCCA",
"- 	c #D6D6D5",
"; 	c #A0A0A0",
"> 	c #A2A2A2",
", 	c #A4A4A4",
"' 	c #AEAEAD",
") 	c #B0B0B0",
"! 	c #B3B3B2",
"~ 	c #B6B6B5",
"{ 	c #B9B9B8",
"] 	c #CCCBC9",
"^ 	c #0000AD",
"/ 	c #000DC4",
"( 	c #0010DA",
"_ 	c #0014F2",
": 	c #89A5DB",
"< 	c #7397DF",
"[ 	c #7096E0",
"} 	c #6893E2",
"| 	c #5782E2",
"1 	c #CBCBC9",
"2 	c #010FA8",
"3 	c #0013B9",
"4 	c #0022D0",
"5 	c #0018E2",
"6 	c #ACB4D3",
"7 	c #A4ADD5",
"8 	c #A8B3D4",
"9 	c #AEB9D2",
"0 	c #94A4D6",
"a 	c #CBCAC8",
"b 	c #B1B1B0",
"c 	c #D9D9D9",
"d 	c #BEBEBE",
"e 	c #CECECE",
"f 	c #222CA8",
"g 	c #0514AB",
"h 	c #001AC2",
"i 	c #0019D5",
"j 	c #7E8FDC",
"k 	c #8899DB",
"l 	c #8298DC",
"m 	c #8B9EDA",
"n 	c #758FDC",
"o 	c #CACAC7",
"p 	c #ADADAD",
"q 	c #424347",
"r 	c #78787A",
"s 	c #D2D2D1",
"t 	c #A3A3A3",
"u 	c #3C45AC",
"v 	c #0F1CA1",
"w 	c #0010AD",
"x 	c #0017BE",
"y 	c #576AD7",
"z 	c #7384D8",
"A 	c #687CDC",
"B 	c #7183DE",
"C 	c #5D74DD",
"D 	c #ABABAB",
"E 	c #A6BF99",
"F 	c #47F200",
"G 	c #82C261",
"H 	c #D1D1CF",
"I 	c #A9A9A9",
"J 	c #343EA5",
"K 	c #1E299F",
"L 	c #0111A3",
"M 	c #0014B2",
"N 	c #3148CF",
"O 	c #596AD4",
"P 	c #4C64DA",
"Q 	c #556BDD",
"R 	c #3B59D7",
"S 	c #C8C8C5",
"T 	c #A5A5A5",
"U 	c #D1D1D1",
"V 	c #ACACAC",
"W 	c #ACACAB",
"X 	c #1C269B",
"Y 	c #1E2A9C",
"Z 	c #03129B",
"` 	c #0012A8",
" .	c #0F28C5",
"..	c #394FCF",
"+.	c #3049D4",
"@.	c #364FDC",
"#.	c #173DCB",
"$.	c #C7C7C4",
"%.	c #AFAFAF",
"&.	c #000086",
"*.	c #00058B",
"=.	c #000087",
"-.	c #00008B",
";.	c #00129D",
">.	c #0017B9",
",.	c #0018BA",
"'.	c #0018BF",
").	c #001EAF",
"!.	c #A1A1A1",
"~.	c #CFCECD",
"{.	c #C9C9C7",
"].	c #C9C9C6",
"^.	c #E0E0DF",
"/.	c #C1C1C0",
"(.	c #BFBFBE",
"_.	c #BCBCBB",
":.	c #AAAAAA",
"<.	c #A8A8A8",
"[.	c #A6A6A6",
"}.	c #C7C7C7",
"|.	c #BFBFBF",
"1.	c #F8F8F8",
"2.	c #BABAB9",
"3.	c #8A8A8A",
"4.	c #9F9F9F",
"5.	c #EAEAEA",
"6.	c #C1C1C1",
"7.	c #949494",
"8.	c #B1B1B1",
"9.	c #E8E8E8",
"0.	c #C9C9C8",
"a.	c #C6C6C4",
"b.	c #ABABAA",
"c.	c #DBDBDB",
"d.	c #909091",
"e.	c #B5B5B4",
"f.	c #9C9C9B",
"g.	c #A0A09F",
"                                ",
"      . + + + @ # $ % % & * = - ",
"      + ; ; ; > , ' ) ! ~ { ] ~ ",
"      + ; ^ / ( _ : < [ } | 1 ! ",
"      + ; 2 3 4 5 6 7 8 9 0 a b ",
"c d e @ > f g h i j k l m n o ' ",
"p q r s t u v w x y z A B C o D ",
"E F G H I J K L M N O P Q R S T ",
") U V H W X Y Z `  ...+.@.#.$.t ",
"%.U D $ ' &.*.=.-.;.>.,.'.).S !.",
"%.U D % % ~.& * = {.].].S S $.; ",
") U D ^./.(._.{ ~ :.<.[., > ; }.",
"p |.T         1.2.3.4.5.        ",
"6.7.8.      9.0.a.2.b.; c.      ",
"d.r d.      _._.e.f.f.g.;       ",
"                                "};
