/* XPM */
static const char* nextDifference_command_xpm[] = {
"16 16 7 1",
" 	c None",
".	c #000000",
"+	c #999999",
"@	c #808080",
"#	c #4D4D4D",
"$	c #666666",
"%	c #333333",
"                ",
"      .....     ",
"      .++@.     ",
"      .+@#.     ",
"      .+$%.     ",
"      .+$%.     ",
"    ...+$%...   ",
"    .@+@$$#%.   ",
"     .@@$#%.    ",
"     .@@$#%.    ",
"      .$#%.     ",
"      .$#%.     ",
"       .%.      ",
"       .%.      ",
"        .       ",
"                "};
