/* XPM */
static const char * nextMarker_command_disabled_xpm[] = {
"16 16 34 1",
" 	c None",
".	c #9EA4AC",
"+	c #B5BBC3",
"@	c #B6BCC4",
"#	c #B7BDC5",
"$	c #B8BEC6",
"%	c #B9BFC7",
"&	c #AAB0B8",
"*	c #BBC1C9",
"=	c #D5DBE3",
"-	c #C9CFD7",
";	c #828890",
">	c #9BA1A9",
",	c #767C84",
"'	c #A1A7AF",
")	c #969CA4",
"!	c #8B9199",
"~	c #80868E",
"{	c #757B83",
"]	c #6A7078",
"^	c #A4AAB2",
"/	c #91979F",
"(	c #878D95",
"_	c #7D838B",
":	c #727880",
"<	c #676D75",
"[	c #5E646C",
"}	c #949AA2",
"|	c #787E86",
"1	c #6E747C",
"2	c #636971",
"3	c #D4DAE2",
"4	c #696F77",
"5	c #6B7179",
"                ",
"      ..........",
"     .++@##$%%%%",
"    .&*=========",
"    &*-=========",
"   +*-*=========",
"   +============",
"   +;=>=>>>>>>>=",
"   +;,==========",
"&')!~{]=========",
"^>/(_:<[>>>>>>>=",
">}!;|12=====3===",
"   +:4====333==3",
"   +5=>=>>>>>>>=",
"   @====3=333=3=",
"   @$++@$$$$$$$$"};
