/* XPM */
static const char* nullLights_command_xpm[] = {
"16 16 9 1",
" 	c None",
".	c #FF9300",
"+	c #FFFF66",
"@	c #FFB400",
"#	c #FF0000",
"$	c #666666",
"%	c #999999",
"&	c #000000",
"^  c #FFFFFF",
".     ....  + . ",
"  @  .++++.  @  ",
" +  .++++++.    ",
"   .++++++++.   ",
"   .++@@@@++. + ",
" @ .++++@+++.@  ",
"  + .++@+++.   .",
".    .++@+.     ",
"     .+@++.###  ",
"   +  .+@.##### ",
"    @ $$$##^#^##",
"  .   $$%###^###",
"      %%$##^#^##",
"      $$%%##### ",
"       &&  ###  ",
"                "};
