/* XPM */
static const char* nullPortView_command_xpm[] = {
"16 16 5 1",
" 	c None",
".	c #0000FF",
"+	c #00007F",
"@	c #FF0000",
"#	c #FFFFFF",
"                ",
"                ",
"............... ",
".             . ",
".             . ",
".             . ",
".     +++++++++ ",
".     +       + ",
".     +    @@@+ ",
".     +   @@@@@ ",
".     +  @@#@#@@",
"......+++@@@#@@@",
"         @@#@#@@",
"          @@@@@ ",
"           @@@  ",
"                "};
