/* XPM */
static const char* nullFragmentShaders_command_xpm[] = {
"16 16 6 1",
" 	c None",
".	c #808080",
"+	c #FFFFFF",
"@	c #CCCCCC",
"#	c #000000",
"$	c #FF0000",
"  ..........    ",
"  .++++++++@.   ",
"  .++++++++@+.  ",
"  .++++++++#### ",
"  .+#####++++@# ",
"  .++++++++++@# ",
"  .++######++@# ",
"  .++++++++++@# ",
"  .++######$$$# ",
"  .+++++++$$$$$ ",
"  .+++###$$+$+$$",
"  .++++++$$$+$$$",
"  .++####$$+$+$$",
"  .@@@@@@@$$$$$ ",
"  #########$$$# ",
"                "};
