/* XPM */
static const char* nullTextures_command_xpm[] = {
"16 16 8 1",
" 	c None",
".	c #808080",
"+	c #CC6633",
"@	c #CCCCCC",
"#	c #CC3300",
"$	c #000000",
"%	c #FF0000",
"&	c #FFFFFF",
"  ..........    ",
"  .++++++++..   ",
"  .@@@@@@@@.+.  ",
"  .++++@++#$$$$ ",
"  .++##@++++##$ ",
"  .@@@@@@@@@@@$ ",
"  .@++#+++@++#$ ",
"  .@++++##@+++$ ",
"  .@@@@@@@@%%%$ ",
"  .++++@#+%%%%% ",
"  .++##@+%%&%&%%",
"  .@@@@@@%%%&%%%",
"  .@+++++%%&%&%%",
"  .#++++##%%%%% ",
"  $$$$$$$$$%%%$ ",
"                "};
