/* XPM */
static const char * openCallsLog_command_disabled_xpm[] = {
"16 16 13 1",
" 	c None",
".	c #9EA4AC",
"+	c #B5BBC3",
"@	c #B6BCC4",
"#	c #B7BDC5",
"$	c #B8BEC6",
"%	c #B9BFC7",
"&	c #AAB0B8",
"*	c #BBC1C9",
"=	c #D5DBE3",
"-	c #C9CFD7",
";	c #9BA1A9",
">	c #D4DAE2",
"                ",
"   ..........   ",
"  .++@##$%%%%   ",
" .&*=========   ",
" &*-=========   ",
"+*-*=========   ",
"+============   ",
"+==;=;;;;;;;=   ",
"+============   ",
"+============   ",
"+==;=;;;;;;;=   ",
"+========>===   ",
"+======>>>==>   ",
"+==;=;;;;;;;=   ",
"@====>=>>>=>=   ",
"@$++@$$$$$$$$   "};
