/* XPM */
static const char* OpenGL_ES_ico_alt_xpm[] = {
"16 16 2 1",
" 	c None",
".	c #339933",
"                ",
"                ",
"                ",
".......   ..... ",
"..       ..   ..",
"..       ..   ..",
"..       ..     ",
"......    ...   ",
"..          ... ",
"..            ..",
"..       ..   ..",
"..       ..   ..",
".......   ..... ",
"                ",
"                ",
"                "};

