/* XPM */
static const char* opengl_driver_ico_xpm[] = {
"16 16 24 1",
" 	c None",
".	c #0072BF",
"+	c #FFFFFF",
"@	c #FBFBFB",
"#	c #006FBB",
"$	c #F5F5F5",
"%	c #006AB7",
"&	c #EFEFEF",
"*	c #006BB7",
"=	c #0066B3",
"-	c #E9E9E9",
";	c #0063AF",
">	c #E3E3E3",
",	c #005EAB",
"'	c #DDDDDD",
")	c #005FAB",
"!	c #00549C",
"~	c #D0D0D0",
"{	c #D1D1D1",
"]	c #004584",
"^	c #BEBEBE",
"/	c #00386E",
"(	c #ACACAC",
"_	c #002D5A",
"                ",
" .............. ",
"................",
"...+++++..++....",
"..@@...@@.@@....",
"#$$#####$#$$####",
"%&&*%%%*%%&&****",
"=--=======--====",
";>>;;>>>>;>>;;;;",
",''),,,'','',,,,",
"!~{!!!!~~!~~!!!!",
"]]^^]]]^^]^^]]]]",
"///((((/(/((((((",
"________________",
" ______________ ",
"                "};
