/* XPM */
static const char* OpenCL_ico_xpm[] = {
"16 16 2 1",
" 	c None",
".	c #CC3300",
"                ",
"                ",
"                ",
"  .....   ..    ",
" ..   ..  ..    ",
"..     .  ..    ",
"..        ..    ",
"..        ..    ",
"..        ..    ",
"..        ..    ",
"..     .  ..    ",
" ..   ..  ..    ",
"  .....   ......",
"                ",
"                ",
"                "};

