/* XPM */
static const char* OpenGL_and_OpenCL_ico_xpm[] = {
"16 16 3 1",
" 	c None",
".	c #CC3300",
"+	c #0000FF",
"                ",
"   .....  ..    ",
"  ..   .. ..    ",
" ..     . ..    ",
" ..       ..    ",
" ..       ..    ",
" .. +++++ .++   ",
"  .++  .++.++   ",
"  ++.... +.++...",
"  ++       ++   ",
"  ++  ++++ ++   ",
"  ++    ++ ++   ",
"   ++   ++ ++   ",
"    ++++ + +++++",
"                ",
"                "};


