/* XPM */
static const char* openBuildLogFile_command_xpm[] = {
"16 16 8 1",
"  c None",
"! c #000000",
"# c #292929",
"$ c #330000",
"% c #660000",
"& c #868686",
"' c #F1F1F1",
"( c #FFFFFF",
"                ",
"   $$$$$$$$$    ",
"   $(((((($($   ",
"   $(((((($$($  ",
"   %'&&&&($($($ ",
"   $'(('(($$$$$ ",
"   $(&&&&&&&&($ ",
"   $(((((((((($ ",
"   %(&&&&&&&&($ ",
"   %(((((((((($ ",
"   %(&&&&&&&&($ ",
"   $(((((((((($ ",
"   $'&&&&&&&&($ ",
"   %''((('(((($ ",
"   $%$###$##### ",
"                "};
