/* XPM */
static const char* OpenGL_ico_alt_xpm[] = {
"16 16 2 1",
" 	c None",
".	c #6666FF",
"                ",
"                ",
"                ",
"  .....   ..    ",
" ..   ..  ..    ",
"..     .  ..    ",
"..        ..    ",
"..        ..    ",
"..  ....  ..    ",
"..    ..  ..    ",
"..    ..  ..    ",
" ..   ..  ..    ",
"  .... .  ......",
"                ",
"                ",
"                "};

