/* XPM */
static const char* profile_execution_mode_xpm[] = {
"16 16 6 1",
"  c None",
"# c #003300",
"% c #669900",
"@ c #CCCC00",
"! c #CCCCCC",
"$ c #333333",
"##@@@@@@@@!@@@@@",
"##@@@@@@@!!!@@@@",
"##@@@@@@!!%!@@@@",
"##@@@@@@!%%%!@@@",
"##@@@@@!!%$%!@@@",
"##!!@@@!%%$%%!@@",
"##%%!@!!%$@$%!!!",
"##%%%!!%%$@$%%%%",
"##$$%%!%$@@@$%%%",
"##@@$%%%$@@@@$$$",
"##@@@$%$@@@@@@@@",
"##@@@@$@@@@@@@@@",
"##@@@@@@@@@@@@@@",
"################",
"################",
"                "};
