/* XPM */
static const char* profile_execution_mode_inactive_xpm[] = {
"16 16 3 1",
" 	c None",
"#	c #333333",
"%	c #666666",
"##              ",
"##              ",
"##        %     ",
"##       %%%    ",
"##       % %    ",
"##      %% %%   ",
"##%%    %   %   ",
"##%%%  %%   %%%%",
"##  %% %     %%%",
"##   %%%        ",
"##    %         ",
"##              ",
"##              ",
"################",
"################",
"                "};
