/* XPM */
static const char* raster_fill_command_xpm[] = {
"16 16 5 1",
"  c None",
"! c #000000",
"@ c #A0A0A0",
"# c #C0C0C0",
"$ c #E0E0E0",

"                ",
"      !!!!!!!!! ",
"     !$$$$$$$!! ",
"    !$$$$$$$!@! ",
"   !$$$$$$$!@@! ",
"  !!!!!!!!!@@@! ",
"  !#######!@@@! ",
"  !#######!@@@! ",
"  !#######!@@@! ",
"  !#######!@@@! ",
"  !#######!@@!  ",
"  !#######!@!   ",
"  !#######!!    ",
"  !!!!!!!!!     ",
"                ",
"                "};
