/* XPM */
static const char* raster_wireframe_command_xpm[] = {
"16 16 2 1",
"  c None",
"! c #000000",
"                ",
"      !!!!!!!!! ",
"     !!      !! ",
"    ! !     ! ! ",
"   !  !    !  ! ",
"  !!!!!!!!!   ! ",
"  !   !   !   ! ",
"  !   !   !   ! ",
"  !   !   !   ! ",
"  !   !!!!!!!!! ",
"  !  !    !  !  ",
"  ! !     ! !   ",
"  !!      !!    ",
"  !!!!!!!!!     ",
"                ",
"                "};
