/* XPM */
static const char * record_command_disabled_xpm[] = {
"16 16 46 1",
" 	c None",
".	c #9EA4AC",
"+	c #B5BBC3",
"@	c #B6BCC4",
"#	c #B7BDC5",
"$	c #B8BEC6",
"%	c #B9BFC7",
"&	c #AAB0B8",
"*	c #BBC1C9",
"=	c #D5DBE3",
"-	c #C9CFD7",
";	c #8C929A",
">	c #747A82",
",	c #757B83",
"'	c #777D85",
")	c #9BA1A9",
"!	c #7C828A",
"~	c #767C84",
"{	c #7B8189",
"]	c #7F858D",
"^	c #80868E",
"/	c #787E86",
"(	c #8E949C",
"_	c #858B93",
":	c #8A9098",
"<	c #8B9199",
"[	c #898F97",
"}	c #7E848C",
"|	c #7A8088",
"1	c #7D838B",
"2	c #868C94",
"3	c #9399A1",
"4	c #969CA4",
"5	c #949AA2",
"6	c #828890",
"7	c #9DA3AB",
"8	c #A1A7AF",
"9	c #8D939B",
"0	c #90969E",
"a	c #A5ABB3",
"b	c #ACB2BA",
"c	c #9AA0A8",
"d	c #848A92",
"e	c #D4DAE2",
"f	c #888E96",
"g	c #91979F",
"                ",
"   ..........   ",
"  .++@##$%%%%   ",
" .&*=========   ",
" &*-=========   ",
"+*-*=========   ",
"+=======;>>,'>  ",
"+==)=))!~{]^]{/ ",
"+=====(']_:<[_}|",
"+=====/12(345(2}",
"+==)=)/6;478.496",
"+====={_0)aba)0_",
"+=====]_0)abac02",
"+==)=)56;478749d",
"@====e=[2(545(f ",
"@$++@$$$g[:<;f  "};
