/* XPM */
static const char * red1_icon_xpm[] = {
"16 16 63 1",
" 	c None",
".	c #FE9898",
"+	c #F99090",
"@	c #F98F8F",
"#	c #F98E8E",
"$	c #F48787",
"%	c #F48383",
"&	c #F47D7D",
"*	c #F57B7B",
"=	c #F57C7C",
"-	c #F48888",
";	c #EF7D7D",
">	c #F16D6D",
",	c #F16867",
"'	c #F26868",
")	c #F16E6E",
"!	c #EE7D7C",
"~	c #EA7978",
"{	c #EB6E6E",
"]	c #EE5A5A",
"^	c #F05655",
"/	c #EF5655",
"(	c #EF5B5A",
"_	c #E97878",
":	c #E66C6C",
"<	c #EC5050",
"[	c #EF4645",
"}	c #EF4545",
"|	c #EF4746",
"1	c #EC5150",
"2	c #E26564",
"3	c #EA4645",
"4	c #EE3837",
"5	c #EF3635",
"6	c #EF3735",
"7	c #EE3937",
"8	c #EA4746",
"9	c #E16464",
"0	c #DA6362",
"a	c #DF5554",
"b	c #ED3130",
"c	c #F02927",
"d	c #ED3230",
"e	c #D85454",
"f	c #E92F2E",
"g	c #F11F1D",
"h	c #F21D1B",
"i	c #D05453",
"j	c #D84645",
"k	c #EA2624",
"l	c #EF1D1B",
"m	c #F41412",
"n	c #CC4D4C",
"o	c #D04645",
"p	c #D73C3C",
"q	c #EC1E1C",
"r	c #D73C3B",
"s	c #D04646",
"t	c #CC4D4D",
"u	c #C74545",
"v	c #CD3E3E",
"w	c #CD3F3E",
"x	c #C74645",
"                ",
"                ",
"      ....      ",
"    +@####@+    ",
"   $%&***=&%-   ",
"   ;>,'',',)!   ",
"  ~{]^/////({_  ",
"  :<[}}}}}}|1:  ",
"  234556556789  ",
"  0abccccccda0  ",
"   efghhhhgfe   ",
"   ijklmmlkji   ",
"    nopqqrst    ",
"      uvwx      ",
"                ",
"                "};
