/* XPM */
static const char * red2_icon_xpm[] = {
"16 16 61 1",
" 	c None",
".	c #C99797",
"+	c #C08D8D",
"@	c #C08C8C",
"#	c #BF8B8B",
"$	c #B68282",
"%	c #B47E7E",
"&	c #B27878",
"*	c #B17777",
"=	c #B68383",
"-	c #AC7575",
";	c #A66666",
">	c #A36161",
",	c #A46160",
"'	c #A46161",
")	c #AB7575",
"!	c #A46D6D",
"~	c #A06464",
"{	c #9A5252",
"]	c #994E4D",
"^	c #984E4D",
"/	c #9B5252",
"(	c #A36D6D",
"_	c #995F5F",
":	c #924646",
"<	c #903D3D",
"[	c #8F3D3C",
"}	c #903E3D",
"|	c #924746",
"1	c #915554",
"2	c #8B3B3A",
"3	c #882F2E",
"4	c #882D2D",
"5	c #892F2F",
"6	c #8B3B3B",
"7	c #905554",
"8	c #884F4F",
"9	c #874444",
"0	c #832727",
"a	c #822020",
"b	c #7F3F3F",
"c	c #7F2323",
"d	c #7F1716",
"e	c #7F1514",
"f	c #763A3A",
"g	c #773030",
"h	c #7B1A19",
"i	c #7C1313",
"j	c #7D0D0D",
"k	c #6D3030",
"l	c #6F2C2C",
"m	c #712727",
"n	c #781212",
"o	c #781312",
"p	c #712626",
"q	c #6F2D2D",
"r	c #6D3131",
"s	c #632626",
"t	c #662322",
"u	c #672322",
"v	c #642626",
"                ",
"                ",
"      ....      ",
"    +@####@+    ",
"   $%&****&%=   ",
"   -;>,'>'>;)   ",
"  !~{]^^^^^/~(  ",
"  _:<[[[[[[}|_  ",
"  123444444567  ",
"  890aaaaaa098  ",
"   bcdeeeedcb   ",
"   fghijjihgf   ",
"    klmnopqr    ",
"      stuv      ",
"                ",
"                "};
