/* XPM */
static const char * red3_icon_xpm[] = {
"16 16 50 1",
" 	c None",
".	c #FFC5C4",
"+	c #FFB8B7",
"@	c #FFB7B6",
"#	c #FFAAA9",
"$	c #FFA8A7",
"%	c #FFA6A5",
"&	c #FFA5A4",
"*	c #FF9C9B",
"=	c #FF9796",
"-	c #FF9593",
";	c #FF9594",
">	c #FF9C9A",
",	c #FF908F",
"'	c #FF8D8C",
")	c #FF8887",
"!	c #FF8786",
"~	c #FF8988",
"{	c #FF8F8E",
"]	c #FF8382",
"^	c #FF7E7D",
"/	c #FF7D7C",
"(	c #FF7775",
"_	c #FF7574",
":	c #FF7473",
"<	c #FF7573",
"[	c #FF7675",
"}	c #FF6A68",
"|	c #FF6B69",
"1	c #FF6E6D",
"2	c #FF6F6E",
"3	c #FF5F5D",
"4	c #FF6766",
"5	c #FF6B6A",
"6	c #FF6C6B",
"7	c #FF6C6A",
"8	c #FF504E",
"9	c #FF5654",
"0	c #FF6362",
"a	c #FF4342",
"b	c #FF4746",
"c	c #FF4E4D",
"d	c #FF6160",
"e	c #FF4D4C",
"f	c #FF4847",
"g	c #FF4443",
"h	c #FF3635",
"i	c #FF3C3B",
"j	c #FF3D3B",
"k	c #FF3735",
"                ",
"                ",
"      ....      ",
"    ++@@@@++    ",
"   #$%&&&&%$#   ",
"   *=-;;-;-=>   ",
"  ,'))!!!!!~'{  ",
"  ]^////////^]  ",
"  (__::<::<__[  ",
"  }|12222221|}  ",
"   3456766543   ",
"   8904554098   ",
"    abcddefg    ",
"      hijk      ",
"                ",
"                "};
