/* XPM */
static const char * red4_icon_xpm[] = {
"16 16 55 1",
" 	c None",
".	c #DFA8A7",
"+	c #D89D9C",
"@	c #D89C9B",
"#	c #D19190",
"$	c #D08D8C",
"%	c #CF8988",
"&	c #CE8786",
"*	c #CE8887",
"=	c #CB8483",
"-	c #C77877",
";	c #C67473",
">	c #C87877",
",	c #CA8382",
"'	c #C47B7A",
")	c #C37372",
"!	c #C06665",
"~	c #BF6362",
"{	c #C06766",
"]	c #C47A79",
"^	c #BE6C6B",
"/	c #BB5B5A",
"(	c #B95554",
"_	c #BB5C5B",
":	c #B86261",
"<	c #B5504F",
"[	c #B54847",
"}	c #B44746",
"|	c #B54948",
"1	c #B76160",
"2	c #B25958",
"3	c #B25251",
"4	c #B24140",
"5	c #B23D3C",
"6	c #AB4B4A",
"7	c #AE3D3C",
"8	c #AF3635",
"9	c #AF3534",
"0	c #A54241",
"a	c #A73E3D",
"b	c #AC3534",
"c	c #AD3231",
"d	c #AF302F",
"e	c #9E3736",
"f	c #A03635",
"g	c #A33534",
"h	c #AA2F2E",
"i	c #AB302F",
"j	c #A23433",
"k	c #A13736",
"l	c #9F3837",
"m	c #982C2B",
"n	c #9B2C2B",
"o	c #9B2D2C",
"p	c #982D2C",
"                ",
"                ",
"      ....      ",
"    +@@@@@@+    ",
"   #$%&&&*%$#   ",
"   =-;;;;;;>,   ",
"  ')!~~~~~~{)]  ",
"  ^/((((((((_^  ",
"  :<[}}[}}[|<1  ",
"  234555555432  ",
"   6789999876   ",
"   0abcddcba0   ",
"    efghijkl    ",
"      mnop      ",
"                ",
"                "};
