/* XPM */
static const char * render_context_info_command_xpm[] = {
"16 16 8 1",
" 	c None",
".	c #661100",
"+	c #DDDDDD",
"@	c #CCCCCC",
"#	c #AAAAAA",
"$	c #FFFFFF",
"%	c #666666",
"&	c #007FFF",
"  .....+++...   ",
"  ....+@.@#...  ",
"  .$$+@@@@##$$. ",
"  .$+@@######$. ",
"  .$$$$$$$$$$$. ",
"  .$%$%%%%%%%$. ",
"  .$$$$$$$$$$$. ",
"  .$%$%%%%%%%$. ",
"  .$$$$$$$$&&&. ",
"  .$%$%%%%&&$&& ",
"  .$$$$$$&&&&&&&",
"  .$%$%%%&&$$&&&",
"  .$$$$$$&&&$&&&",
"  .$$$$$$$&$$$& ",
"  .........&&&. ",
"                "};
