/* XPM */
static const char* saveDimmed_command_xpm[] = {
"16 16 3 1",
"  c None",
"! c #000000",
"# c #A0A0A4",
"                ",
" ############## ",
" ###        # # ",
" ###        ### ",
" ###        ### ",
" ###        ### ",
" ###        ### ",
" ###        ### ",
" ############## ",
" ############## ",
" ############## ",
" #########  ### ",
" #########  ### ",
" #########  ### ",
"  ############# ",
"                "};
