/* XPM */
static const char* saveProfilingData_command_xpm[] = {
"16 16 52 1",
" 	c None",
".	c #333333",
"+	c #666666",
"@	c #A0A8E0",
"#	c #A0A0E0",
"$	c #A098E0",
"%	c #8080D0",
"&	c #8078C0",
"*	c #7070C0",
"=	c #6060B0",
"-	c #C0C0FF",
";	c #9090FF",
">	c #FFFFFF",
",	c #F0F8FF",
"'	c #6060D0",
")	c #404080",
"!	c #5058B0",
"~	c #C0B8FF",
"{	c #E0E8F0",
"]	c #5058C0",
"^	c #6060A0",
"/	c #5050A0",
"(	c #B0B0F0",
"_	c #D0D8E0",
":	c #4050B0",
"<	c #2040B0",
"[	c #3048B0",
"}	c #6068C0",
"|	c #504890",
"1	c #9090E0",
"2	c #8088D0",
"3	c #8078D0",
"4	c #5060B0",
"5	c #405060",
"6	c #5050B0",
"7	c #404090",
"8	c #606070",
"9	c #A0B0B0",
"0	c #C0D0D0",
"a	c #505860",
"b	c #4048A0",
"c	c #7068C0",
"d	c #5060C0",
"e	c #404850",
"f	c #808080",
"g	c #B0B8B0",
"h	c #404050",
"i	c #A8AAC0",
"j	c #665FB1",
"k	c #6058B0",
"l	c #404890",
"m	c #403870",
"..              ",
"..              ",
"..        +     ",
"..       +++    ",
"..       + +    ",
"..   @#$++%&**= ",
"..++ #-;+>>,')! ",
"..+++$~++>,{]^/+",
"..  ++(+>,{_:*/+",
"..   +++']:<[}| ",
"..   %+$123*}4| ",
"..   &$15555567 ",
"..   *125890ab) ",
".....c2def_ghb).",
".....ijk!/|l)mm.",
"                "};
