/* XPM */
static const char * show_controlPanel_xpm[] = {
"8 8 7 1",
" 	c None",
".	c #000000",
"+	c #333333",
"@	c #666666",
"#	c #4D4D4D",
"$	c #808080",
"%	c #999999",
"    .+  ",
"   .+@  ",
"  .+@   ",
" .+#    ",
"  +#@   ",
"   @$%  ",
"    %%  ",
"        "};
