/* XPM */
static const char* showOnlyDifferences_command_xpm[] = {
"16 16 5 1",
"  c None",
"! c #000000",
"# c #E02000",
"$ c #404040",
"% c #E04040",
"                ",
"            ##  ",
"           ###  ",
"          ###   ",
" $$$$$$$$###$$$ ",
" $$$$$$$###$$$$ ",
" $$$$$$###$$$$$ ",
"       %##      ",
"      ###       ",
" $$$$###$$$$$$$ ",
" $$$$%##$$$$$$$ ",
" $$$%##$$$$$$$$ ",
"   ###          ",
"  ###           ",
"  ##            ",
"                "};
