/* XPM */
static const char* sourcecodeViewer_command_xpm[] = {
"16 16 5 1",
" 	c None",
".	c #999999",
"+	c #FFFFFF",
"@	c #000000",
"#	c #0000CC",
"   .........    ",
"   .+++++++ .   ",
"   .+++++++ +.  ",
"   .+++++++@@@@ ",
"  ###++++++++ @ ",
" ##+##+#+++#+ @ ",
" ##+++###+### @ ",
" ##++++#+++#+ @ ",
" ##+##+++++++ @ ",
"  ###++++++++ @ ",
"   .+++++++++ @ ",
"   .+++++++++ @ ",
"   .+++++++++ @ ",
"   .          @ ",
"   .@@@@@@@@@@@ ",
"                "};
