/* XPM */
static const char* stateVariablesCompareViewer_command_xpm[] = {
"16 16 22 1",
" 	c None",
".	c #808080",
"+	c #FF6600",
"@	c #CC0000",
"#	c #FFFFFF",
"$	c #CCCCCC",
"%	c #00CCFF",
"&	c #666666",
"*	c #00657F",
"=	c #33FFFF",
"-	c #80E5FF",
";	c #40A5BF",
">	c #3398B2",
",	c #66CCE5",
"'	c #6699E5",
")	c #990000",
"!	c #2287A1",
"~	c #80B2FF",
"{	c #00327F",
"]	c #000000",
"^	c #3366B2",
"/	c #4073BF",
"                ",
" .... +++@      ",
" .##$+%%%%@     ",
" .#&+*=%%%%@    ",
" .#+-=#=;;;;@   ",
" .#+>,=;---')   ",
" .#+-,*;->>').  ",
" .$@!,*;--~{)]] ",
" ]]]+**;-^^)&$] ",
"   +@)%/~~)##$] ",
"  +@) @)))&&&$] ",
" +@)   .#####$] ",
"+@)    .#&&&&$] ",
"@)     .$$$$$$] ",
"       ]]]]]]]] ",
"                "};
