/* XPM */
static const char* stringMarkerFunction_ico_xpm[] = {
"16 16 3 1",
"  c #800000",
"! c #808080",
"# c #FFFFFF",
"################",
"################",
"######      ####",
"###### ####  ###",
"###### #### # ##",
"###### #!!#    #",
"### ## ####### #",
"###  # #!!!!!# #",
"       ####### #",
"###  # #!!!!!# #",
"### ## ####### #",
"###### #!!!!!# #",
"###### ####### #",
"######         #",
"################",
"################"};
