/* XPM */
static const char * texture_shortcut_icon_xpm[] = {
"16 16 65 1",
" 	c None",
".	c #A17A58",
"+	c #AA815B",
"@	c #A07A58",
"#	c #AA815C",
"$	c #8C4242",
"%	c #A76565",
"&	c #9D6061",
"*	c #915859",
"=	c #C8B5B5",
"-	c #7C484A",
";	c #724043",
">	c #68393B",
",	c #613437",
"'	c #C3AEAE",
")	c #4E2528",
"!	c #421F22",
"~	c #985252",
"{	c #B57B7B",
"]	c #AE7678",
"^	c #A46F70",
"/	c #D4C3C3",
"(	c #915F61",
"_	c #88575A",
":	c #7F4F52",
"<	c #714447",
"[	c #D3C0C0",
"}	c #60373A",
"|	c #4A2326",
"1	c #B69D9D",
"2	c #D8C6C6",
"3	c #D9C9C9",
"4	c #D2BFBF",
"5	c #964C4A",
"6	c #B68283",
"7	c #AD797B",
"8	c #A47173",
"9	c #9B6A6B",
"0	c #926265",
"a	c #7F5255",
"b	c #764A4E",
"c	c #6E4246",
"d	c #4D262A",
"e	c #000000",
"f	c #805255",
"g	c #764A4D",
"h	c #6D4246",
"i	c #FFFFFF",
"j	c #4E262A",
"k	c #808080",
"l	c #D0BEBE",
"m	c #7F5155",
"n	c #532B30",
"o	c #BA8D62",
"p	c #C39566",
"q	c #CC9C6A",
"r	c #D5A26E",
"s	c #DDA972",
"t	c #BA8E62",
"u	c #C29566",
"v	c #C39466",
"w	c #C29466",
"x	c #CC9B6A",
"y	c #C39467",
"z	c #CB9B6B",
"       .+       ",
"       @#       ",
"  $%&*=-;>,')!  ",
"  ~{]^/(_:<[}|  ",
"  123333333334  ",
"  52678903abcd  ",
"eeeeeeeeeefghd  ",
"eiiiiiiiieaghj  ",
"eiikeeeeie333l  ",
"eiiiieeeiem3hn  ",
"eiiieeeeieopqrs ",
"eiiekikeietu    ",
"eiieiiikieov    ",
"eiiieeiiie wx   ",
"eiiiiiiiie yz   ",
"eeeeeeeeee      "};
