/* XPM */
static const char* texturesViewer_command_xpm[] = {
"16 16 6 1",
" 	c None",
".	c #808080",
"+	c #CC6633",
"@	c #CCCCCC",
"#	c #CC3300",
"$	c #000000",
"  ..........    ",
"  .++++++++..   ",
"  .@@@@@@@@.+.  ",
"  .++++@++#$$$$ ",
"  .++##@++++##$ ",
"  .@@@@@@@@@@@$ ",
"  .@++#+++@++#$ ",
"  .@++++##@+++$ ",
"  .@@@@@@@@@@@$ ",
"  .++++@#+++++$ ",
"  .++##@++++#@$ ",
"  .@@@@@@@@@@@$ ",
"  .@++++++@+++$ ",
"  .#++++##@+++$ ",
"  $$$$$$$$$$$$$ ",
"                "};
