/* XPM */
static const char* validateProgram_command_xpm[] = {
"16 16 4 1",
"  c None",
"! c #000000",
"# c #000080",
"$ c #FF0000",
"                ",
"           $$ # ",
"          $$#   ",
"         $$   # ",
"  $$    $$ #    ",
" ! $$  $$  #   !",
" !  $$ $$##### !",
" !  $$$$  ###  !",
" !   $$    #   !",
" !    $        !",
" ! ! ! ! ! ! ! !",
" !             !",
" ! ! ! ! ! ! ! !",
" !             !",
" !!!!!!!!!!!!!!!",
"                "};
