/* XPM */
static const char* windows_additional_ico_xpm[] = {
"16 16 95 1",
"  c None",
"! c #000000",
"# c #C51400",
"$ c #C71E00",
"% c #CC2800",
"& c #CC2D00",
"' c #DC3600",
"( c #CA1E00",
") c #DB4200",
"* c #E24E00",
"+ c #E55600",
", c #DC4700",
"- c #D02F00",
". c #E04B00",
"/ c #E86100",
"0 c #EE7B00",
"1 c #EF7400",
"2 c #C85700",
"3 c #72B300",
"4 c #559C00",
"5 c #3D7F00",
"6 c #226A00",
"7 c #005E00",
"8 c #035900",
"9 c #EB6B00",
": c #EF7D00",
"; c #F18600",
"< c #E35E00",
"= c #6BAA00",
"> c #6BAC00",
"? c #539B00",
"@ c #297D00",
"A c #057000",
"B c #073B00",
"C c #E33900",
"D c #EE5900",
"E c #E56600",
"F c #E06100",
"G c #5DA100",
"H c #569C00",
"I c #6FAB00",
"J c #418D00",
"K c #177800",
"L c #AD2C00",
"M c #C83F00",
"N c #DE5600",
"O c #408F00",
"P c #77AD00",
"Q c #69A600",
"R c #6CAA00",
"S c #1F7100",
"T c #006FB5",
"U c #007ECF",
"V c #007ED4",
"W c #0088DF",
"X c #378C00",
"Y c #4B9800",
"Z c #559E00",
"[ c #419700",
"† c #006FBF",
"] c #0086D3",
"^ c #0089D7",
"_ c #007DD4",
"` c #0081D8",
"a c #007DD1",
"b c #FF9C00",
"c c #006FBB",
"d c #007FCD",
"e c #008AD6",
"f c #0078CD",
"g c #FF9F00",
"h c #FFA200",
"i c #0069B9",
"j c #0072C3",
"k c #008CD6",
"l c #0085D5",
"m c #0079CE",
"n c #FFA300",
"o c #FFB800",
"p c #0065B7",
"q c #0090DC",
"r c #0084D7",
"s c #FFB000",
"t c #00365F",
"u c #007CCC",
"v c #FFAD00",
"w c #FFBF00",
"x c #FEB200",
"y c #FFB600",
"z c #A06400",
"{ c #C57B00",
"| c #6666CC",
"} c #6699CC",
"~ c #99CCFF",
" c #F8F8F8",
"                ",
"    #$%&'       ",
"   (%)*+,       ",
"   -./012 345678",
"   )9:;<  =>?@AB",
"  CD99EF GHI>JK ",
"  L   MN OPQR?S ",
"  TUVW   XY4Z[[ ",
" †]^_`a b       ",
" cdeVVf ngh}}}  ",
" ijklm  noo}~|  ",
" pjdqr hs}}}~|||",
" t   u vw}~~~~|",
"       xy}||~|tt",
"         z{|~t  ",
"           ||t  "};

