/* XPM */
static const char * ka_built_files_node_icon_xpm[] = {
"16 16 80 1",
" 	c None",
".	c #A1B4CC",
"+	c #B5CBE5",
"@	c #9CB2CC",
"#	c #B0C8E5",
"$	c #E5E5E5",
"%	c #98B0CC",
"&	c #CAE2FF",
"*	c #ABC6E5",
"=	c #93ACCC",
"-	c #C4DFFF",
";	c #FFFFFF",
">	c #FEFEFE",
",	c #E2E3E5",
"'	c #A5C2E5",
")	c #8EAACC",
"!	c #BEDCFF",
"~	c #812990",
"{	c #DEE1E5",
"]	c #A0BFE5",
"^	c #89A8CC",
"/	c #B8D8FF",
"(	c #FCFDFF",
"_	c #DADFE5",
":	c #9ABDE5",
"<	c #84A5CC",
"[	c #B2D5FF",
"}	c #F7FBFF",
"|	c #D6DDE5",
"1	c #95BAE5",
"2	c #80A3CC",
"3	c #ACD2FF",
"4	c #F3F8FF",
"5	c #D2DAE5",
"6	c #90B7E5",
"7	c #7BA0CC",
"8	c #A6CFFF",
"9	c #EDF5FE",
"0	c #EEF6FF",
"a	c #ECF3FD",
"b	c #CED8E5",
"c	c #8AB4E5",
"d	c #769DCC",
"e	c #A1CCFF",
"f	c #EAF3FF",
"g	c #4D207A",
"h	c #633E8D",
"i	c #DDE2F4",
"j	c #E0E6F7",
"k	c #CBD8E5",
"l	c #85B1E5",
"m	c #729ACC",
"n	c #9AC8FF",
"o	c #E5F1FF",
"p	c #5F398A",
"q	c #9F91C1",
"r	c #E4F0FE",
"s	c #ACA3CD",
"t	c #AFA8D0",
"u	c #C6D5E5",
"v	c #80ADE5",
"w	c #6D98CC",
"x	c #94C5FF",
"y	c #E2F0FF",
"z	c #A094C4",
"A	c #7E65A6",
"B	c #76599F",
"C	c #8169A8",
"D	c #C2D2E5",
"E	c #7BABE5",
"F	c #6895CC",
"G	c #8FC1FF",
"H	c #DDEDFF",
"I	c #613D8D",
"J	c #C9D1ED",
"K	c #75A8E5",
"L	c #89BFFF",
"M	c #D8EAFF",
"N	c #D7E9FE",
"O	c #83BBFF",
"   .............",
"  +++++++++++++@",
"  #$$$$$$$$$$$#%",
"&&&&&&&&&&&&&$*=",
"-;;>;;;;;;;;-,')",
"!;~;~;;;;;;;!{]^",
"/(~(~(((((((/_:<",
"[}~}~}}}}}}}[|12",
"34~4~~~444443567",
"890a000900008bcd",
"efgfhggfigjfeklm",
"nogopqorsgtonuvw",
"xygyyzpyABCyxDEF",
"GHgHggIHgJgHGKK ",
"LMMNMMMNMMMML   ",
"OOOOOOOOOOOOO   "};
