/* XPM */
static const char * ka_base_file_node_icon_xpm[] = {
"16 16 27 1",
" 	c None",
".	c #D3E7FF",
"+	c #B9D9FF",
"@	c #D0E5FF",
"#	c #FFFFFF",
"$	c #CAE2FF",
"%	c #C4DFFF",
"&	c #BEDCFF",
"*	c #B8D8FF",
"=	c #FCFDFF",
"-	c #B2D5FF",
";	c #F7FBFF",
">	c #ACD2FF",
",	c #F3F8FF",
"'	c #A6CFFF",
")	c #EEF6FF",
"!	c #A1CCFF",
"~	c #EAF3FF",
"{	c #9AC8FF",
"]	c #E5F1FF",
"^	c #94C5FF",
"/	c #E2F0FF",
"(	c #8FC1FF",
"_	c #DDEDFF",
":	c #89BFFF",
"<	c #D8EAFF",
"[	c #83BBFF",
"  ..........+   ",
"  @##@##@##@+.  ",
"  $##$##$##$+++ ",
"  %##%##%##%##% ",
"  &##&##&##&##& ",
"  *==*==*==*==* ",
"  -;;-;;-;;-;;- ",
"  >,,>,,>,,>,,> ",
"  '))'))'))'))' ",
"  !~~!~~!~~!~~! ",
"  {]]{]]{]]{]]{ ",
"  ^//^//^//^//^ ",
"  (__(__(__(__( ",
"  :<<:<<:<<:<<: ",
"  [[[[[[[[[[[[[ ",
"                "};
