/* XPM */
static const char * profile_explorer_command_xpm[] = {
"16 16 2 1",
" 	c None",
".	c #060606",
" ...............",
"................",
"..              ",
".. ... ... ..   ",
"..  .. ..  ..   ",
"..  .....  ..   ",
"..   ...   ..   ",
"..   ...   ..   ",
"..  .....  ..   ",
"..  .. ... ..   ",
".. ...  .. .....",
"..              ",
"...             ",
"................",
"................",
" ..............."};
