/* XPM */
static const char* XpmCallSamplingIcon[] = { 
"16 16 65 2",
"Qt c None",
".g c #1e7acd",
".b c #247dce",
".# c #277fcf",
".a c #3386d1",
".e c #3e8dd4",
".s c #47b1e0",
".d c #4b95d7",
".V c #4db5e2",
".D c #4eb4e2",
".T c #4fbceb",
".t c #50b5e2",
".B c #54bdec",
".i c #589cda",
".c c #599dda",
".q c #5cc1ee",
".f c #b0d0ed",
".8 c #b1f2fe",
".7 c #b1f3fd",
".6 c #b1f3fe",
".9 c #b2f3fd",
".5 c #b2f3fe",
".W c #b3edfd",
".4 c #b3f2fe",
".U c #b4e9fc",
"#. c #b4f2fd",
".X c #b5effd",
".3 c #b5f1fe",
".2 c #b6f1fe",
".1 c #b7f1fe",
".0 c #b8f1fe",
".Z c #baf0fe",
".O c #bbecfe",
".P c #bbedfe",
".N c #bcecfe",
".Q c #bcedfd",
".Y c #bceffe",
".M c #bdebfe",
".L c #beebfe",
".S c #beecfe",
".C c #bfe8fc",
".K c #bfeafe",
".J c #c0eafe",
".R c #c0ecfe",
".I c #c1ebfe",
".H c #c3ebfe",
".F c #c4edfe",
".G c #c5ebfe",
".E c #c5ecfe",
".A c #c7ecfe",
".z c #c9edfe",
".y c #cfeffe",
".r c #d0eefc",
".x c #d0effe",
".w c #d1effe",
".v c #d2effe",
".p c #dbf2fe",
".u c #dcf2fe",
".o c #dcf3fe",
".m c #e4f6fe",
".l c #e5f6fe",
".k c #e6f6fe",
".n c #e7f6fe",
".j c #e7f7fe",
".h c None",
"Qt.#.a.a.a.a.a.a.a.a.a.a.a.a.bQt",
"Qt.c.d.d.d.d.d.d.d.d.d.d.d.d.eQt",
"Qt.f.g.h.h.h.g.h.h.h.g.h.h.h.gQt",
"Qt.f.g.h.g.g.g.h.g.g.g.h.g.g.gQt",
"Qt.f.g.h.g.g.g.h.h.h.g.h.h.h.gQt",
"Qt.f.g.h.g.g.g.g.g.h.g.g.g.h.gQt",
"Qt.f.g.h.h.h.g.h.h.h.g.h.h.h.gQt",
"Qt.i.g.g.g.g.g.g.g.g.g.g.g.g.gQt",
"Qt.j.k.l.l.l.m.m.m.m.m.l.l.l.nQt",
"Qt.o.p.q.r.s.s.s.s.s.s.s.t.p.uQt",
"Qt.v.w.x.x.x.y.y.y.y.y.y.x.y.xQt",
"Qt.z.A.B.C.s.s.s.s.s.s.s.D.E.FQt",
"Qt.G.H.H.I.J.J.K.L.M.N.N.O.P.QQt",
"Qt.R.S.T.U.s.s.s.s.s.s.s.V.W.XQt",
"Qt.Y.Z.0.1.2.3.4.4.5.6.7.8.9#.Qt",
"QtQtQtQtQtQtQtQtQtQtQtQtQtQtQtQt"};
