/* XPM */
static const char *XpmCodeBytes[] = {
"16 16 15 1",
"# c #008000",
"a c #63c659",
"b c #69cc61",
"c c #6ecf68",
"d c #72d36d",
"e c #76d672",
"h c #79d877",
"g c #7cdb7b",
"i c #7fdd7e",
"j c #81df82",
"f c #84e185",
"k c #86e388",
"l c #88e58b",
"m c #8ae78e",
". c #8ce891",
".##############.",
"#aaaaaaaaaaaaaa#",
"#bbbbbbbbbbbbbb#",
"#ccc##ccc####cc#",
"#dd#dd#ee#ee##d#",
"#e#fgeeee#eee#e#",
"#h#fghhhh#hh##h#",
"#g#fggggg####gg#",
"#i#fiiiii#iii#i#",
"#j#fjjjjj#jjj#j#",
"#f#ffffff#fff#f#",
"#kk#kk#kk#kk##k#",
"#lll##lll####ll#",
"#mmmmmmmmmmmmmm#",
"#..............#",
".##############."};

