/* XPM */
static const char *XpmExpandCollapse[] = {
/* width height ncolors chars_per_pixel */
"16 16 16 1",
/* colors */
"  c #88E58B",
". c #63C659",
"X c #76D672",
"o c #8CE891",
"O c #72D36D",
"+ c #84E185",
"@ c #81DF82",
"# c #8AE78E",
"$ c #7FDD7E",
"% c #7CDB7B",
"& c #86E388",
"* c #69CC61",
"= c #79D877",
"- c #008000",
"; c #6ECF68",
": c None",
/* pixels */
"----------------",
"-..............-",
"-**----------**-",
"-;;;;-;;;;;;;;;-",
"-OOOO--------OO-",
"-XXXX-XXXXXXXXX-",
"-====--------==-",
"-%%%%%%%%%%%%%%-",
"-$$$$$$$$$$$$$$-",
"-@@----------@@-",
"-++++++++++++++-",
"-&&----------&&-",
"-              -",
"-##----------##-",
"-oooooooooooooo-",
"----------------"
};
