/* XPM */
static const char *XpmPercentIcon[]={
"16 16 15 1",
". c #008000",
"# c #63c659",
"a c #69cc61",
"c c #6ecf68",
"d c #72d36d",
"e c #76d672",
"b c #79d877",
"f c #7cdb7b",
"g c #7fdd7e",
"h c #81df82",
"i c #84e185",
"j c #86e388",
"k c #88e58b",
"l c #8ae78e",
"m c #8ce891",
"................",
".##############.",
".abbbbbbbbbbbba.",
".cbbbbbbbbbbbbb.",
".dbbb.bbbbb.bbb.",
".ebb.b.bbb.bbbb.",
".bbbb.bbb.bbbbb.",
".fbbbbbb.bbbbbb.",
".gbbbbb.bbbbbbb.",
".hbbbb.bb.bbbbb.",
".ibbb.bb.b.bbbb.",
".jbb.bbbb.bbbbb.",
".kbbbbbbbbbbbbb.",
".lbbbbbbbbbbbbb.",
".mbbbbbbbbbbbbm.",
"................"};
