/* XPM */
static const char *XpmPidTid[]={
"16 16 15 1",
"# c #008000",
"a c #63c659",
"b c #69cc61",
"d c #6ecf68",
"e c #72d36d",
"f c #76d672",
"c c #79d877",
"g c #7cdb7b",
"h c #7fdd7e",
"i c #81df82",
"j c #84e185",
". c #86e388",
"k c #88e58b",
"l c #8ae78e",
"m c #8ce891",
".##############.",
"#aaaaaaaaaaaaaa#",
"#b###c###c##bcb#",
"#d#c#cc#ee#e#cc#",
"#e###ee#ee#e#ec#",
"#f#ffff#ff#c#cc#",
"#c#ccc###c##ccc#",
"#ggggggggggggcc#",
"#hhhhhhhhhhhhhc#",
"#ii###i###i##cc#",
"#j..#...#..#.#c#",
"#..c#...#..#.#c#",
"#kcc#ccc#cc#c#c#",
"#lcc#cc###c##cc#",
"#mccccccccccccm#",
".##############."};
