/* XPM */
static const char *XpmSixtyFour[]={
"16 16 5 1",
". c #008000",
"# c #63c659",
"a c #69cc61",
"b c #79d877",
"c c #8ce891",
"................",
".##############.",
".abbbbbbbbbbbba.",
".bbbbbbbbbbbbbb.",
".bb...bbbbb.bbb.",
".b..bbbbbb..bbb.",
".b.bbbbbb.b.bbb.",
".b....bb..b.bbb.",
".b..b..b.bb.bbb.",
".b.bbb.b.....bb.",
".b.bbb.bbbb.bbb.",
".bb...bbbbb.bbb.",
".bbbbbbbbbbbbbb.",
".bbbbbbbbbbbbbb.",
".cbbbbbbbbbbbbc.",
"................"};
