/* XPM */
static const char *SystemModuleIcon_xpm[] = {
"16 16 83 1",
" 	c None",
".	c #808080",
"+	c #B4B7B7",
"@	c #B4B6B7",
"#	c #B3B6B6",
"$	c #B2B6B5",
"%	c #B2B4B5",
"&	c #B1B3B4",
"*	c #AFB2B3",
"=	c #AEB1B1",
"-	c #ADAFAF",
";	c #ABAEAE",
">	c #FFDFD7",
",	c #BABABA",
"'	c #969898",
")	c #FFDFD0",
"!	c #FFDFCF",
"~	c #FFDECD",
"{	c #D3D6D6",
"]	c #FFDCC2",
"^	c #FFDBC1",
"/	c #FFDCC3",
"(	c #FFDEC4",
"_	c #FFDFBD",
":	c #3F3F3F",
"<	c #FFDBB8",
"[	c #FFD9B7",
"}	c #FFD9B6",
"|	c #FFD8B5",
"1	c #FFD8B4",
"2	c #FFDCB1",
"3	c #FFD9AE",
"4	c #FFD6AA",
"5	c #9D8872",
"6	c #FFD4A8",
"7	c #5A544C",
"8	c #3B3B3B",
"9	c #AD9476",
"0	c #A18B6F",
"a	c #9D886D",
"b	c #FFD4A0",
"c	c #FFD49F",
"d	c #737373",
"e	c #848484",
"f	c #515151",
"g	c #3D3D3D",
"h	c #9A8466",
"i	c #FFD194",
"j	c #FFD396",
"k	c #4F4F4F",
"l	c #7A7A7A",
"m	c #626262",
"n	c #9F8663",
"o	c #FFCB85",
"p	c #FFCE89",
"q	c #FFD18C",
"r	c #B29869",
"s	c #FFD385",
"t	c #FFD081",
"u	c #B29566",
"v	c #3E3E3E",
"w	c #AD8E62",
"x	c #FFC97D",
"y	c #FFCB7E",
"z	c #FFCD7F",
"A	c #FFCE81",
"B	c #CBAA6B",
"C	c #42413F",
"D	c #CBA566",
"E	c #B2925F",
"F	c #737372",
"G	c #5A5144",
"H	c #FFC672",
"I	c #FFC873",
"J	c #FFC975",
"K	c #FFCD77",
"L	c #FFC86B",
"M	c #FFCB6E",
"N	c #AFB1B2",
"O	c #FFC662",
"P	c #FFC964",
"Q	c #B3B5B5",
"R	c #ADB0B0",
"..........      ",
"+@#$%&*=-;.     ",
";>>>>>>>>,'.    ",
";)!~!~!)){,'    ",
";]^/]//(],{,;   ",
";_::<[}|1[[<<   ",
";2::344556443   ",
";788790::abcb   ",
";deedfg::hiij   ",
";kggklmgnoppq   ",
";rstuvlfwxyzA   ",
";BCCDEkFGHIJK   ",
";C::CLge8::LM   ",
"NC::COge8::OP   ",
"NQ;;RQQQQQQQQ   ",
"                "};
