/* XPM */
static const char *SystemModule64Icon_xpm[]={
"16 16 88 1",
" 	c None",
".	c #808080",
"+	c #BFBFBF",
"@	c #B4B7B7",
"#	c #B4B6B7",
"$	c #B3B6B6",
"%	c #B2B6B5",
"&	c #B2B4B5",
"*	c #B1B3B4",
"=	c #D6D8D8",
"-	c #D6D7D7",
";	c #000000",
">	c #ABAEAE",
",	c #FFDFD7",
"'	c #FFEEEA",
")	c #DCDCDC",
"!	c #CACBCB",
"~	c #FFDFD0",
"{	c #FFDFCF",
"]	c #FFDECD",
"^	c #FFEEE6",
"/	c #FFDCC2",
"(	c #FFDBC1",
"_	c #FFDCC3",
":	c #FFEDE0",
"<	c #FFDFBD",
"[	c #3F3F3F",
"}	c #FFDBB8",
"|	c #FFD9B7",
"1	c #FFEBDA",
"2	c #FFEBD9",
"3	c #FFECDB",
"4	c #FFDCB1",
"5	c #FFD9AE",
"6	c #FFD6AA",
"7	c #FFEAD4",
"8	c #CDC3B8",
"9	c #FFEBD6",
"0	c #5A544C",
"a	c #3B3B3B",
"b	c #AD9476",
"c	c #A18B6F",
"d	c #9E9E9E",
"e	c #CDC3B5",
"f	c #FFE9CF",
"g	c #FFD49F",
"h	c #FFD4A0",
"i	c #737373",
"j	c #848484",
"k	c #515151",
"l	c #3D3D3D",
"m	c #9A8466",
"n	c #FFD194",
"o	c #FFD396",
"p	c #4F4F4F",
"q	c #7A7A7A",
"r	c #626262",
"s	c #9F8663",
"t	c #FFCB85",
"u	c #FFCE89",
"v	c #FFD18C",
"w	c #B29869",
"x	c #FFD385",
"y	c #FFD081",
"z	c #B29566",
"A	c #3E3E3E",
"B	c #AD8E62",
"C	c #FFC97D",
"D	c #FFCB7E",
"E	c #FFCD7F",
"F	c #FFCE81",
"G	c #CBAA6B",
"H	c #42413F",
"I	c #CBA566",
"J	c #B2925F",
"K	c #737372",
"L	c #5A5144",
"M	c #FFC672",
"N	c #FFC873",
"O	c #FFC975",
"P	c #FFCD77",
"Q	c #FFC86B",
"R	c #FFCB6E",
"S	c #AFB1B2",
"T	c #FFC662",
"U	c #FFC964",
"V	c #B3B5B5",
"W	c #ADB0B0",
".......+++      ",
"@#$%&*=-;;+   ; ",
">,,,,,';')!+ ;; ",
">~{]{]^;;;)!; ; ",
">/(_/_:;:);); ; ",
"><[[}|1;21;3;;;;",
">4[[5678;;779 ; ",
">0aa0bcddefgh   ",
">ijjikl[[mnno   ",
">pllpqrlstuuv   ",
">wxyzAqkBCDEF   ",
">GHHIJpKLMNOP   ",
">H[[HQlja[[QR   ",
"SH[[HTlja[[TU   ",
"SV>>WVVVVVVVV   ",
"                "};
