/* XPM */
static const char *UserModule64Icon_xpm[] = {
"16 16 91 1",
" 	c None",
".	c #808080",
"+	c #BFBFBF",
"@	c #FFFFFF",
"#	c #B4B7B7",
"$	c #B4B6B7",
"%	c #B3B6B6",
"&	c #B2B6B5",
"*	c #B2B4B5",
"=	c #B1B3B4",
"-	c #D6D8D8",
";	c #D6D7D7",
">	c #000000",
",	c #ABAEAE",
"'	c #E6EFEF",
")	c #E7EFEF",
"!	c #F2F6F6",
"~	c #DCDCDC",
"{	c #CACBCB",
"]	c #E7EFEE",
"^	c #E5EFEF",
"/	c #E6EFEE",
"(	c #E5EEEE",
"_	c #E3EFEE",
":	c #E2EEEE",
"<	c #E2EFED",
"[	c #F0F6F5",
"}	c #F1F6F6",
"|	c #3F3F3F",
"1	c #E1EFED",
"2	c #DFEFED",
"3	c #EEF6F5",
"4	c #EEF6F4",
"5	c #EFF6F5",
"6	c #E3EFED",
"7	c #DEEFEB",
"8	c #DCEEEB",
"9	c #ECF6F4",
"0	c #C4C9C8",
"a	c #EDF6F4",
"b	c #555857",
"c	c #3B3B3B",
"d	c #545857",
"e	c #97A3A1",
"f	c #8D9896",
"g	c #9E9E9E",
"h	c #EBF6F4",
"i	c #D9EEEA",
"j	c #DAEEEB",
"k	c #737373",
"l	c #848484",
"m	c #515151",
"n	c #3D3D3D",
"o	c #85928F",
"p	c #D4EFE8",
"q	c #D5EEE9",
"r	c #D7EEE9",
"s	c #4F4F4F",
"t	c #7A7A7A",
"u	c #626262",
"v	c #879692",
"w	c #CFEDE6",
"x	c #D1EEE6",
"y	c #D2EEE7",
"z	c #D5EEE8",
"A	c #9CA8A6",
"B	c #D7EFE9",
"C	c #D4EEE8",
"D	c #97A8A5",
"E	c #3E3E3E",
"F	c #8FA39E",
"G	c #CCEDE5",
"H	c #CEEEE5",
"I	c #CFEEE6",
"J	c #D2EEE8",
"K	c #AEBEBB",
"L	c #414141",
"M	c #A7BEB8",
"N	c #94A8A3",
"O	c #515756",
"P	c #C8EDE4",
"Q	c #CAEEE4",
"R	c #CCEEE6",
"S	c #D0EDE7",
"T	c #CAEDE4",
"U	c #CAEDE5",
"V	c #CEEEE6",
"W	c #AFB1B2",
"X	c #CCEEE5",
"Y	c #B3B5B5",
"Z	c #ADB0B0",
".......+++@     ",
"#$%&*=-;>>+   > ",
",'))''!>!~{+ >> ",
",)]^/(!>>>~{> > ",
",_:<<<[>}~>~> > ",
",)||123>43>5>>>>",
",6||7890>>9a3 > ",
",bccdefgg0hij   ",
",kllkmn||opqr   ",
",snnstunvwxyz   ",
",ABCDEtmFGHIJ   ",
",KLLMNskOPQRS   ",
",L||LTnlc||UV   ",
"WL||LPnlc||PX   ",
"WY,,ZYYYYYYYY   ",
"                "};
