/* XPM */
static const char* UserModuleIcon_xpm[] = {
"16 16 90 1",
" 	c None",
".	c #808080",
"+	c #B4B7B7",
"@	c #B4B6B7",
"#	c #B3B6B6",
"$	c #B2B6B5",
"%	c #B2B4B5",
"&	c #B1B3B4",
"*	c #AFB2B3",
"=	c #AEB1B1",
"-	c #ADAFAF",
";	c #ABAEAE",
">	c #E6EFEF",
",	c #E7EFEF",
"'	c #BABABA",
")	c #969898",
"!	c #E7EFEE",
"~	c #E5EFEF",
"{	c #E6EFEE",
"]	c #E5EEEE",
"^	c #D3D6D6",
"/	c #E3EFEE",
"(	c #E2EEEE",
"_	c #E2EFED",
":	c #E4EFEE",
"<	c #E4EEEE",
"[	c #3F3F3F",
"}	c #E1EFED",
"|	c #DFEFED",
"1	c #DFEEEC",
"2	c #DEEEEC",
"3	c #DEEEEB",
"4	c #DEEFEC",
"5	c #DFEFEC",
"6	c #E0EFED",
"7	c #E1EEED",
"8	c #E3EFED",
"9	c #DEEFEB",
"0	c #DCEEEB",
"a	c #DBEEEB",
"b	c #8B9593",
"c	c #DAEEEA",
"d	c #DBEFEB",
"e	c #545857",
"f	c #3B3B3B",
"g	c #97A3A1",
"h	c #8D9896",
"i	c #8A9593",
"j	c #D8EFEA",
"k	c #D9EEEA",
"l	c #DAEEEB",
"m	c #737373",
"n	c #848484",
"o	c #515151",
"p	c #3D3D3D",
"q	c #85928F",
"r	c #D4EFE8",
"s	c #D5EEE9",
"t	c #D7EEE9",
"u	c #4F4F4F",
"v	c #7A7A7A",
"w	c #626262",
"x	c #CFEDE6",
"y	c #D1EEE6",
"z	c #D2EEE7",
"A	c #D5EEE8",
"B	c #97A8A5",
"C	c #D7EFE9",
"D	c #D4EEE8",
"E	c #3E3E3E",
"F	c #8FA39E",
"G	c #CCEDE5",
"H	c #CEEEE5",
"I	c #CFEEE6",
"J	c #D2EEE8",
"K	c #A7BEB8",
"L	c #414141",
"M	c #94A8A3",
"N	c #515756",
"O	c #C8EDE4",
"P	c #CAEEE4",
"Q	c #CCEEE6",
"R	c #D0EDE7",
"S	c #CAEDE4",
"T	c #CAEDE5",
"U	c #CEEEE6",
"V	c #AFB1B2",
"W	c #CCEEE5",
"X	c #B3B5B5",
"Y	c #ADB0B0",
"..........      ",
"+@#$%&*=-;.     ",
";>,,>>,>>').    ",
";,!~{]>>,^')    ",
";/(____:<'^';   ",
";,[[}|1234567   ",
";8[[90abbcd04   ",
";effegh[[ijkl   ",
";mnnmop[[qrst   ",
";uppuvwphxyzA   ",
";BCDBEvoFGHIJ   ",
";KLLKMumNOPQR   ",
";L[[LSpnf[[TU   ",
"VL[[LOpnf[[OW   ",
"VX;;YXXXXXXXX   ",
"                "};
